<svg width="16" height="17" viewBox="0 0 16 17" fill="none" xmlns="http://www.w3.org/2000/svg">
<path d="M13 5.642V7.778C13.595 8.125 14 8.763 14 9.5V11.5C14 12.603 13.103 13.5 12 13.5H8C6.897 13.5 6 12.603 6 11.5V9.5C6 8.397 6.897 7.5 8 7.5H9V5.5H8C5.794 5.5 4 7.294 4 9.5V11.5C4 13.706 5.794 15.5 8 15.5H12C14.206 15.5 16 13.706 16 11.5V9.5C16 7.641 14.721 6.089 13 5.642Z" fill="white"/>
<path d="M8 1.5H4C1.794 1.5 0 3.294 0 5.5V7.5C0 9.359 1.279 10.911 3 11.358V9.222C2.405 8.875 2 8.237 2 7.5V5.5C2 4.397 2.897 3.5 4 3.5H8C9.103 3.5 10 4.397 10 5.5V7.5C10 8.603 9.103 9.5 8 9.5H7V11.5H8C10.206 11.5 12 9.706 12 7.5V5.5C12 3.294 10.206 1.5 8 1.5Z" fill="white"/>
</svg>
