<svg width="32" height="32" viewBox="0 0 32 32" fill="none" xmlns="http://www.w3.org/2000/svg">
<path fill-rule="evenodd" clip-rule="evenodd" d="M7.05715 7.05721C7.57785 6.53651 8.42207 6.53651 8.94277 7.05721L16 14.1144L23.0572 7.05721C23.5779 6.53651 24.4221 6.53651 24.9428 7.05721C25.4635 7.57791 25.4635 8.42213 24.9428 8.94283L17.8856 16L24.9428 23.0572C25.4635 23.5779 25.4635 24.4221 24.9428 24.9428C24.4221 25.4635 23.5779 25.4635 23.0572 24.9428L16 17.8856L8.94277 24.9428C8.42207 25.4635 7.57785 25.4635 7.05715 24.9428C6.53645 24.4221 6.53645 23.5779 7.05715 23.0572L14.1143 16L7.05715 8.94283C6.53645 8.42213 6.53645 7.57791 7.05715 7.05721Z" fill="#7F8596"/>
</svg>
