<svg width="39" height="38" viewBox="0 0 39 38" fill="none" xmlns="http://www.w3.org/2000/svg">
<path d="M14.4966 18.3508C17.7899 18.3508 20.4657 15.675 20.4657 12.3816C20.4657 9.0883 17.7899 6.41248 14.4966 6.41248C11.2032 6.41248 8.5274 9.0883 8.5274 12.3816C8.5274 15.675 11.2032 18.3508 14.4966 18.3508Z" fill="#2A85FF"/>
<path d="M26.0869 27.6766V30.3999C26.0869 31.0491 25.5644 31.5874 24.8994 31.5874H4.85437C4.2052 31.5874 3.66687 31.0491 3.66687 30.3999V27.6766C3.66687 23.8608 6.7702 20.7574 10.586 20.7574H19.1677C19.9435 20.7574 20.6877 20.8841 21.3844 21.1374C21.3844 21.1374 21.3844 21.1216 21.4002 21.1374C24.1235 22.0558 26.0869 24.6366 26.0869 27.6766Z" fill="#2A85FF"/>
<path d="M26.0869 27.6766V30.3999C26.0869 31.0491 25.5644 31.5874 24.8994 31.5874H4.85437C4.2052 31.5874 3.66687 31.0491 3.66687 30.3999V27.6766C3.66687 23.8608 6.7702 20.7574 10.586 20.7574H19.1677C19.9435 20.7574 20.6877 20.8841 21.3844 21.1374C21.3844 21.1374 21.3844 21.1216 21.4002 21.1374C24.1235 22.0558 26.0869 24.6366 26.0869 27.6766Z" fill="#2A85FF"/>
<path d="M35.3336 26.315V28.5475C35.3336 29.07 34.9061 29.4975 34.3836 29.4975H28.4619V27.6767C28.4619 26.0775 28.0503 24.5575 27.3378 23.2433C27.0369 22.705 26.7044 22.1983 26.3244 21.7392C26.0553 21.4383 25.7861 21.1375 25.5011 20.8842H29.9028C30.077 20.8842 30.2353 20.8841 30.3936 20.9158C30.5995 20.9316 30.8053 20.9633 31.0111 21.0108C32.2144 21.2641 33.2594 21.9292 34.0353 22.8158C34.1619 22.9583 34.2886 23.1167 34.3994 23.2908C34.4153 23.2908 34.4153 23.2908 34.3994 23.3067C34.7003 23.75 34.9378 24.225 35.0961 24.7475C35.1436 24.9216 35.1911 25.0958 35.2228 25.27C35.3019 25.6025 35.3336 25.9508 35.3336 26.315Z" fill="#2A85FF"/>
<path d="M26.4354 18.1291C29.05 18.1291 31.1696 16.0095 31.1696 13.3949C31.1696 10.7803 29.05 8.66077 26.4354 8.66077C23.8208 8.66077 21.7012 10.7803 21.7012 13.3949C21.7012 16.0095 23.8208 18.1291 26.4354 18.1291Z" fill="#2A85FF"/>
</svg>
