<svg width="39" height="25" viewBox="0 0 39 25" fill="none" xmlns="http://www.w3.org/2000/svg">
<path d="M12.4185 20.7671H11.9681L11.6697 21.1044C8.96454 24.161 6.25149 24.2924 4.35961 23.4964C3.37326 23.0815 2.57463 22.4016 2.07305 21.6717C1.55993 20.9249 1.42547 20.2365 1.53696 19.7644C2.72826 14.72 3.50189 10.9053 4.5122 5.19751C4.98899 2.50389 7.36315 1.00013 10.6406 1.00005C14.2633 0.999963 17.3175 1.00001 20.2515 1.00005C22.9604 1.00009 25.5667 1.00012 28.4232 1.00005C31.5274 0.999976 33.8645 2.62371 34.5697 5.27984C35.1524 7.47445 35.8875 11.0701 36.4808 14.1429C36.7764 15.6738 37.0352 17.0658 37.22 18.0752C37.3124 18.5798 37.3863 18.9886 37.437 19.2711L37.4953 19.5962L37.4992 19.6184C37.4585 21.7879 35.8398 23.3841 33.6898 23.8605C31.536 24.3376 29.0169 23.6286 27.4883 21.2297L27.1935 20.7671H26.6449H12.4185Z" stroke="#7F8596" stroke-width="2"/>
<path d="M12.5 8V11M12.5 14V11M9.5 11H12.5M15.5 11H12.5" stroke="#7F8596" stroke-width="2" stroke-linecap="round" stroke-linejoin="round"/>
<circle cx="26.2048" cy="8.3337" r="1.3337" fill="#7F8596"/>
<circle cx="28.5759" cy="10.7048" r="1.3337" fill="#7F8596"/>
<circle cx="23.8337" cy="10.7048" r="1.3337" fill="#7F8596"/>
<circle cx="26.2048" cy="13.0754" r="1.3337" fill="#7F8596"/>
</svg>
