<svg width="39" height="38" viewBox="0 0 39 38" fill="none" xmlns="http://www.w3.org/2000/svg">
<path d="M19.5019 23.0699C21.7493 23.0699 23.5711 21.248 23.5711 19.0007C23.5711 16.7533 21.7493 14.9315 19.5019 14.9315C17.2546 14.9315 15.4327 16.7533 15.4327 19.0007C15.4327 21.248 17.2546 23.0699 19.5019 23.0699Z" stroke="#7F8596" stroke-width="1.5" stroke-linecap="round" stroke-linejoin="round"/>
<path fill-rule="evenodd" clip-rule="evenodd" d="M32.9909 13.0944L31.3601 10.276C30.6793 9.10437 29.191 8.70854 28.0193 9.38937L27.2118 9.84854C25.5809 10.7827 23.5543 9.61103 23.5543 7.72687V6.7927C23.5543 5.44687 22.4618 4.35437 21.1159 4.35437H17.8543C16.5084 4.35437 15.416 5.44687 15.416 6.7927V7.72687C15.416 9.61103 13.3893 10.7827 11.7584 9.84854L10.951 9.38937C9.7793 8.70854 8.29094 9.1202 7.61011 10.276L5.97928 13.0944C5.29844 14.266 5.71011 15.7544 6.86594 16.4352L7.67345 16.8944C9.30429 17.8285 9.30429 20.1877 7.67345 21.1219L6.86594 21.581C5.69427 22.2619 5.29844 23.7502 5.97928 24.9219L7.61011 27.7402C8.29094 28.9119 9.7793 29.3077 10.951 28.6269L11.7584 28.1677C13.3893 27.2335 15.416 28.4052 15.416 30.2894V31.2235C15.416 32.5694 16.5084 33.6619 17.8543 33.6619H21.1159C22.4618 33.6619 23.5543 32.5694 23.5543 31.2235V30.2894C23.5543 28.4052 25.5809 27.2335 27.2118 28.1677L28.0193 28.6269C29.191 29.3077 30.6793 28.896 31.3601 27.7402L32.9909 24.9219C33.6718 23.7502 33.2601 22.2619 32.1043 21.581L31.2968 21.1219C29.666 20.1877 29.666 17.8285 31.2968 16.8944L32.1043 16.4352C33.2759 15.7544 33.6718 14.2502 32.9909 13.0944Z" stroke="#7F8596" stroke-width="1.5" stroke-linecap="round" stroke-linejoin="round"/>
</svg>
