<svg width="39" height="38" viewBox="0 0 39 38" fill="none" xmlns="http://www.w3.org/2000/svg">
<path d="M17.3942 31.6192C17.0142 31.6509 16.6342 31.6667 16.2542 31.6667C14.4017 31.6667 12.6442 31.2234 11.0767 30.4475L4.91751 31.3342L5.85169 25.1434H5.86752C5.23419 23.75 4.85419 22.2142 4.85419 20.5834C4.85419 17.5909 6.07334 14.8834 8.03668 12.8884" stroke="#7F8596" stroke-width="1.5" stroke-linecap="round" stroke-linejoin="round"/>
<path d="M17.6951 18.6516C18.3946 18.6516 18.9617 18.0987 18.9617 17.4166C18.9617 16.7346 18.3946 16.1816 17.6951 16.1816C16.9955 16.1816 16.4284 16.7346 16.4284 17.4166C16.4284 18.0987 16.9955 18.6516 17.6951 18.6516Z" fill="#7F8596"/>
<path d="M22.7623 18.6516C23.4618 18.6516 24.0289 18.0987 24.0289 17.4166C24.0289 16.7346 23.4618 16.1816 22.7623 16.1816C22.0627 16.1816 21.4956 16.7346 21.4956 17.4166C21.4956 18.0987 22.0627 18.6516 22.7623 18.6516Z" fill="#7F8596"/>
<path d="M27.813 18.6516C28.5126 18.6516 29.0797 18.0987 29.0797 17.4166C29.0797 16.7346 28.5126 16.1816 27.813 16.1816C27.1134 16.1816 26.5463 16.7346 26.5463 17.4166C26.5463 18.0987 27.1134 18.6516 27.813 18.6516Z" fill="#7F8596"/>
<path d="M33.1481 21.9766L34.0823 28.1675L27.9231 27.2808C26.8148 27.835 25.6115 28.215 24.329 28.3891C23.8223 28.4683 23.284 28.5 22.7456 28.5C16.444 28.5 11.3615 23.5441 11.3615 17.4166C11.3615 14.3608 12.6123 11.6375 14.6706 9.62665C16.7131 7.58415 19.5789 6.33331 22.7614 6.33331C29.0631 6.33331 34.1456 11.2891 34.1456 17.4166C34.1456 19.0475 33.7656 20.5833 33.1323 21.9766H33.1481V21.9766Z" stroke="#7F8596" stroke-width="1.5" stroke-linecap="round" stroke-linejoin="round"/>
</svg>
