<svg width="39" height="38" viewBox="0 0 39 38" fill="none" xmlns="http://www.w3.org/2000/svg">
<path d="M19.5003 21.8816C21.0918 21.8816 22.3819 20.5915 22.3819 19C22.3819 17.4085 21.0918 16.1183 19.5003 16.1183C17.9088 16.1183 16.6186 17.4085 16.6186 19C16.6186 20.5915 17.9088 21.8816 19.5003 21.8816Z" fill="#2A85FF"/>
<path d="M32.7053 20.5516L31.8978 20.0925C31.3278 19.76 31.2644 19.2216 31.2644 19C31.2644 18.7783 31.3278 18.24 31.8978 17.9075L32.7053 17.4483C33.5445 16.9575 34.1461 16.1816 34.3836 15.2475C34.6369 14.3133 34.5103 13.3316 34.0353 12.4925L32.4044 9.67413C31.4069 7.94829 29.1744 7.34662 27.4486 8.34412L26.6411 8.80329C26.0711 9.13579 25.5645 8.91412 25.3903 8.80329C25.2003 8.70829 24.757 8.37579 24.757 7.72662V6.79246C24.757 4.79746 23.1261 3.16663 21.1311 3.16663H17.8695C15.8745 3.16663 14.2436 4.79746 14.2436 6.79246V7.72662C14.2436 8.37579 13.8003 8.70829 13.6261 8.80329C13.4361 8.91412 12.9294 9.13579 12.3594 8.80329L11.552 8.34412C9.82614 7.34662 7.60944 7.94829 6.61193 9.67413L4.9811 12.4925C3.96777 14.2183 4.56948 16.4508 6.31115 17.4483L7.10281 17.9075C7.67281 18.24 7.73614 18.7783 7.73614 19C7.73614 19.2216 7.67281 19.76 7.10281 20.0925L6.31115 20.5516C4.56948 21.5491 3.96777 23.7816 4.9811 25.5075L6.61193 28.3258C7.08694 29.165 7.86279 29.7666 8.81279 30.02C9.74696 30.2733 10.7128 30.1308 11.552 29.6558L12.3594 29.1966C12.9294 28.8641 13.4361 29.0858 13.6261 29.1966C13.8003 29.2916 14.2436 29.6241 14.2436 30.2733V31.2075C14.2436 33.2025 15.8745 34.8333 17.8695 34.8333H21.1311C23.1261 34.8333 24.757 33.2025 24.757 31.2075V30.2733C24.757 29.6241 25.2003 29.2916 25.3903 29.1966C25.5645 29.0858 26.0711 28.8641 26.6411 29.1966L27.4486 29.6558C28.2878 30.1308 29.2536 30.2733 30.2036 30.02C31.1378 29.7666 31.9136 29.165 32.4044 28.3258L34.0353 25.5075C34.5103 24.6683 34.6369 23.6866 34.3836 22.7525C34.1461 21.8183 33.5445 21.0425 32.7053 20.5516ZM14.2436 19C14.2436 16.1025 16.6028 13.7433 19.5003 13.7433C22.3978 13.7433 24.757 16.1025 24.757 19C24.757 21.8975 22.3978 24.2566 19.5003 24.2566C16.6028 24.2566 14.2436 21.8975 14.2436 19Z" fill="#2A85FF"/>
</svg>
