<svg width="39" height="38" viewBox="0 0 39 38" fill="none" xmlns="http://www.w3.org/2000/svg">
<path d="M14.4965 17.1632C17.1373 17.1632 19.2782 15.0224 19.2782 12.3815C19.2782 9.74067 17.1373 7.59985 14.4965 7.59985C11.8557 7.59985 9.71484 9.74067 9.71484 12.3815C9.71484 15.0224 11.8557 17.1632 14.4965 17.1632Z" stroke="#7F8596" stroke-width="1.5" stroke-linecap="round" stroke-linejoin="round"/>
<path d="M4.85352 30.4002V27.6769C4.85352 24.5102 7.41851 21.9452 10.5852 21.9452H19.1668C22.3335 21.9452 24.8985 24.5102 24.8985 27.6769V30.4002" stroke="#7F8596" stroke-width="1.5" stroke-linecap="round" stroke-linejoin="round"/>
<path d="M26.4336 18.5246C28.3924 18.5246 29.9803 16.9367 29.9803 14.9779C29.9803 13.0192 28.3924 11.4313 26.4336 11.4313C24.4749 11.4313 22.887 13.0192 22.887 14.9779C22.887 16.9367 24.4749 18.5246 26.4336 18.5246Z" stroke="#7F8596" stroke-width="1.5" stroke-linecap="round" stroke-linejoin="round"/>
<path d="M27.4473 22.0719H29.8856C32.2289 22.0719 34.1289 23.9719 34.1289 26.3152V28.3419" stroke="#7F8596" stroke-width="1.5" stroke-linecap="round" stroke-linejoin="round"/>
</svg>
