<svg width="39" height="38" viewBox="0 0 39 38" fill="none" xmlns="http://www.w3.org/2000/svg">
<path d="M29.3959 3.16669H9.60419C8.02946 3.16669 6.51924 3.79224 5.40574 4.90574C4.29224 6.01924 3.66669 7.52946 3.66669 9.10419L3.66669 28.8959C3.66669 30.4706 4.29224 31.9808 5.40574 33.0943C6.51924 34.2078 8.02946 34.8334 9.60419 34.8334H29.3959C30.9706 34.8334 32.4808 34.2078 33.5943 33.0943C34.7078 31.9808 35.3334 30.4706 35.3334 28.8959V9.10419C35.3334 7.52946 34.7078 6.01924 33.5943 4.90574C32.4808 3.79224 30.9706 3.16669 29.3959 3.16669V3.16669ZM27.8125 20.1875H25.2317C25.0347 20.1851 24.8414 20.1331 24.6698 20.0363C24.4982 19.9394 24.3539 19.8008 24.25 19.6334L22.2867 16.5775L17.79 24.3042C17.6911 24.4819 17.5465 24.63 17.3711 24.733C17.1957 24.836 16.9959 24.8902 16.7925 24.89C16.5931 24.8888 16.3972 24.8375 16.2228 24.7406C16.0485 24.6438 15.9014 24.5046 15.795 24.3359L13.1667 20.1875H11.2192C10.9042 20.1875 10.6022 20.0624 10.3795 19.8397C10.1568 19.617 10.0317 19.315 10.0317 19C10.0317 18.6851 10.1568 18.383 10.3795 18.1603C10.6022 17.9376 10.9042 17.8125 11.2192 17.8125H13.7684C13.9657 17.8134 14.1595 17.8648 14.3313 17.9618C14.5032 18.0588 14.6473 18.1982 14.75 18.3667L16.6975 21.4225L21.1942 13.6959C21.2957 13.5168 21.4431 13.3682 21.6212 13.2652C21.7994 13.1622 22.0018 13.1086 22.2075 13.11C22.408 13.1167 22.6041 13.1703 22.7801 13.2666C22.9561 13.3628 23.107 13.499 23.2209 13.6642L25.8334 17.8125H27.7334C28.0483 17.8125 28.3503 17.9376 28.573 18.1603C28.7957 18.383 28.9209 18.6851 28.9209 19C28.9209 19.315 28.7957 19.617 28.573 19.8397C28.3503 20.0624 28.0483 20.1875 27.7334 20.1875H27.8125Z" fill="#2A85FF"/>
</svg>
