<svg width="39" height="38" viewBox="0 0 39 38" fill="none" xmlns="http://www.w3.org/2000/svg">
<path d="M16.2384 32.8541C14.37 32.8541 12.565 32.4582 10.8709 31.6666L5.07585 32.5057C4.69585 32.5691 4.33169 32.4266 4.06252 32.1732C3.79335 31.9041 3.66668 31.5241 3.73001 31.1599L4.6167 25.2857C3.98336 23.7657 3.66669 22.1824 3.66669 20.5832C3.66669 17.3849 4.91751 14.3449 7.19751 12.0491C7.65668 11.5741 8.41668 11.5899 8.87584 12.0491C9.33501 12.5082 9.35084 13.2682 8.87584 13.7274C7.03918 15.5799 6.02586 18.0024 6.02586 20.5832C6.02586 21.9607 6.32668 23.3382 6.92835 24.6524C7.05502 24.9216 7.07085 25.2224 6.97585 25.5074L6.31085 29.9407L10.8867 29.2757C11.1242 29.2441 11.3617 29.2757 11.5834 29.3866C13.3567 30.2732 15.3359 30.6216 17.2517 30.4316C17.885 30.3524 18.4867 30.8432 18.55 31.4924C18.6133 32.1416 18.1383 32.7274 17.4892 32.7907C17.0933 32.8382 16.6659 32.8541 16.2384 32.8541Z" fill="#2A85FF"/>
<path d="M35.3494 17.4166C35.3494 10.6558 29.6969 5.14581 22.7619 5.14581C19.3577 5.14581 16.191 6.44415 13.8477 8.77165C11.4885 11.0991 10.1902 14.155 10.1902 17.4166C10.1902 24.1775 15.8269 29.6875 22.7619 29.6875C23.3952 29.6875 23.9969 29.64 24.5035 29.5608C24.5194 29.5608 24.551 29.5608 24.5669 29.545C25.8177 29.3708 27.0052 29.0225 28.1294 28.5L33.9244 29.3391C34.3044 29.4025 34.6685 29.2758 34.9377 29.0066C35.191 28.7375 35.3177 28.3575 35.2702 27.9933L34.3835 22.1033C35.0169 20.5991 35.3494 19.0158 35.3494 17.4166ZM18.8827 17.8125C18.7244 18.3033 18.2494 18.6516 17.6952 18.6516C16.9985 18.6516 16.4285 18.0975 16.4285 17.4166C16.4285 16.7358 16.9985 16.1816 17.6952 16.1816C17.8377 16.1816 17.9644 16.1975 18.091 16.245C18.5977 16.4033 18.9619 16.8783 18.9619 17.4166C18.9619 17.5591 18.9302 17.6858 18.8827 17.8125ZM22.7619 18.6516C22.0652 18.6516 21.4952 18.0975 21.4952 17.4166C21.4952 16.7358 22.0652 16.1816 22.7619 16.1816C23.4585 16.1816 24.0285 16.7358 24.0285 17.4166C24.0285 18.0975 23.4585 18.6516 22.7619 18.6516ZM27.8285 18.6516C27.1319 18.6516 26.5619 18.0975 26.5619 17.4166C26.5619 16.7358 27.1319 16.1816 27.8285 16.1816C28.5252 16.1816 29.0952 16.7358 29.0952 17.4166C29.0952 18.0975 28.5252 18.6516 27.8285 18.6516Z" fill="#2A85FF"/>
</svg>
