<svg width="39" height="38" viewBox="0 0 39 38" fill="none" xmlns="http://www.w3.org/2000/svg">
<path d="M23.9009 33.6459H15.0975V24.2251C15.0975 23.3542 15.81 22.6417 16.6809 22.6417H22.3175C23.1884 22.6417 23.9009 23.3542 23.9009 24.2251V33.6459V33.6459Z" stroke="#7F8596" stroke-width="1.5" stroke-linecap="round" stroke-linejoin="round"/>
<path d="M34.1455 18.0344V28.6585C34.1455 31.4135 32.0238 33.646 29.3955 33.646H9.60382C6.97549 33.646 4.85382 31.4135 4.85382 28.6585V18.0344C4.85382 16.546 5.47132 15.1527 6.56382 14.2027L16.4597 5.51019C18.2172 3.95852 20.7822 3.95852 22.5397 5.51019L32.4355 14.2027C33.528 15.1527 34.1455 16.546 34.1455 18.0344Z" stroke="#7F8596" stroke-width="1.5" stroke-linecap="round" stroke-linejoin="round"/>
</svg>
