<svg width="39" height="38" viewBox="0 0 39 38" fill="none" xmlns="http://www.w3.org/2000/svg">
<path d="M14.2429 16.4039H8.92295C7.45045 16.4039 6.26294 15.2164 6.26294 13.7439V8.4239C6.26294 6.9514 7.45045 5.76392 8.92295 5.76392H14.2429C15.7154 5.76392 16.9029 6.9514 16.9029 8.4239V13.7439C16.9029 15.2164 15.7154 16.4039 14.2429 16.4039Z" stroke="#7F8596" stroke-width="1.5" stroke-linecap="round" stroke-linejoin="round"/>
<path d="M30.0762 16.4039H24.7563C23.2838 16.4039 22.0963 15.2164 22.0963 13.7439V8.4239C22.0963 6.9514 23.2838 5.76392 24.7563 5.76392H30.0762C31.5487 5.76392 32.7363 6.9514 32.7363 8.4239V13.7439C32.7363 15.2164 31.5487 16.4039 30.0762 16.4039Z" stroke="#7F8596" stroke-width="1.5" stroke-linecap="round" stroke-linejoin="round"/>
<path d="M14.2429 32.2372H8.92295C7.45045 32.2372 6.26294 31.0498 6.26294 29.5773V24.2573C6.26294 22.7848 7.45045 21.5973 8.92295 21.5973H14.2429C15.7154 21.5973 16.9029 22.7848 16.9029 24.2573V29.5773C16.9029 31.0498 15.7154 32.2372 14.2429 32.2372Z" stroke="#7F8596" stroke-width="1.5" stroke-linecap="round" stroke-linejoin="round"/>
<path d="M30.0762 32.2372H24.7563C23.2838 32.2372 22.0963 31.0498 22.0963 29.5773V24.2573C22.0963 22.7848 23.2838 21.5973 24.7563 21.5973H30.0762C31.5487 21.5973 32.7363 22.7848 32.7363 24.2573V29.5773C32.7363 31.0498 31.5487 32.2372 30.0762 32.2372Z" stroke="#7F8596" stroke-width="1.5" stroke-linecap="round" stroke-linejoin="round"/>
</svg>
