<svg width="24" height="25" viewBox="0 0 24 25" fill="none" xmlns="http://www.w3.org/2000/svg">
<path fill-rule="evenodd" clip-rule="evenodd" d="M12 12.01C13.1046 12.01 14 11.1146 14 10.01C14 8.90544 13.1046 8.01001 12 8.01001C10.8954 8.01001 10 8.90544 10 10.01C10 11.1146 10.8954 12.01 12 12.01ZM12 14.01C14.2091 14.01 16 12.2191 16 10.01C16 7.80087 14.2091 6.01001 12 6.01001C9.79086 6.01001 8 7.80087 8 10.01C8 12.2191 9.79086 14.01 12 14.01Z" fill="#494E5B"/>
<path fill-rule="evenodd" clip-rule="evenodd" d="M18.5588 19.5588C20.6672 17.7254 22 15.0234 22 12.01C22 6.48716 17.5228 2.01001 12 2.01001C6.47715 2.01001 2 6.48716 2 12.01C2 15.0234 3.33284 17.7254 5.44116 19.5588C7.19693 21.0856 9.49052 22.01 12 22.01C14.4162 22.01 16.6323 21.1531 18.3609 19.7265C18.4276 19.6715 18.4936 19.6156 18.5588 19.5588ZM12.2579 20.0059C12.1723 20.0086 12.0863 20.01 12 20.01C11.9914 20.01 11.9827 20.01 11.9741 20.01C11.8937 20.0097 11.8135 20.0083 11.7337 20.0057C10.3914 19.9618 9.13273 19.5872 8.03655 18.9608C8.95181 17.7732 10.3882 17.01 12 17.01C13.6118 17.01 15.0482 17.7732 15.9634 18.9608C14.865 19.5885 13.6033 19.9633 12.2579 20.0059ZM17.5624 17.7598C16.2832 16.0882 14.2675 15.01 12 15.01C9.73249 15.01 7.7168 16.0882 6.43759 17.7598C4.93447 16.3053 4 14.2668 4 12.01C4 7.59173 7.58172 4.01001 12 4.01001C16.4183 4.01001 20 7.59173 20 12.01C20 14.2668 19.0655 16.3053 17.5624 17.7598Z" fill="#494E5B"/>
</svg>
