<svg width="24" height="25" viewBox="0 0 24 25" fill="none" xmlns="http://www.w3.org/2000/svg">
<g clip-path="url(#clip0_202_2007)">
<path d="M11 4.01001H4C3.46957 4.01001 2.96086 4.22072 2.58579 4.5958C2.21071 4.97087 2 5.47958 2 6.01001V20.01C2 20.5404 2.21071 21.0492 2.58579 21.4242C2.96086 21.7993 3.46957 22.01 4 22.01H18C18.5304 22.01 19.0391 21.7993 19.4142 21.4242C19.7893 21.0492 20 20.5404 20 20.01V13.01" stroke="#494E5B" stroke-width="2" stroke-linecap="round" stroke-linejoin="round"/>
<path d="M18.5 2.50999C18.8978 2.11217 19.4374 1.88867 20 1.88867C20.5626 1.88867 21.1022 2.11217 21.5 2.50999C21.8978 2.90782 22.1213 3.44738 22.1213 4.00999C22.1213 4.5726 21.8978 5.11217 21.5 5.50999L12 15.01L8 16.01L9 12.01L18.5 2.50999Z" stroke="#494E5B" stroke-width="2" stroke-linecap="round" stroke-linejoin="round"/>
</g>
<defs>
<clipPath id="clip0_202_2007">
<rect width="24" height="24" fill="white" transform="translate(0 0.0100098)"/>
</clipPath>
</defs>
</svg>
