<svg width="92" height="32" viewBox="0 0 92 32" fill="none" xmlns="http://www.w3.org/2000/svg">
<path d="M40.2647 25.416C38.0679 27.6122 35.4209 28.7097 32.3207 28.7097C29.2205 28.7097 26.5723 27.6122 24.3767 25.416C22.1805 23.2204 21.083 20.5722 21.083 17.472C21.083 14.3718 22.1805 11.7242 24.3767 9.52805C26.5723 7.33187 29.2205 6.23438 32.3207 6.23438C35.4209 6.23438 38.0679 7.33246 40.2647 9.52805C42.4602 11.7242 43.5583 14.3718 43.5583 17.472C43.5583 20.5722 42.4602 23.2204 40.2647 25.416ZM27.917 21.8757C29.1381 23.0974 30.6058 23.7077 32.3207 23.7077C34.0344 23.7077 35.5027 23.0974 36.7244 21.8757C37.9449 20.6552 38.5563 19.1869 38.5563 17.472C38.5563 15.7344 37.9455 14.2548 36.7244 13.0331C35.5027 11.812 34.035 11.2012 32.3207 11.2012C30.6058 11.2012 29.1381 11.812 27.917 13.0331C26.6959 14.2542 26.085 15.7338 26.085 17.472C26.085 19.1869 26.6953 20.6546 27.917 21.8757Z" fill="#EFEFEF"/>
<path d="M64.3613 25.416C62.1646 27.6122 59.5176 28.7097 56.4173 28.7097C53.3171 28.7097 50.6689 27.6122 48.4734 25.416C46.2772 23.2204 45.1797 20.5722 45.1797 17.472C45.1797 14.3718 46.2772 11.7242 48.4734 9.52805C50.6689 7.33187 53.3171 6.23438 56.4173 6.23438C59.5176 6.23438 62.1646 7.33246 64.3613 9.52805C66.5569 11.7242 67.655 14.3718 67.655 17.472C67.6556 20.5722 66.5569 23.2204 64.3613 25.416ZM52.0136 21.8757C53.2347 23.0974 54.7024 23.7077 56.4173 23.7077C58.1311 23.7077 59.5994 23.0974 60.8211 21.8757C62.0416 20.6552 62.653 19.1869 62.653 17.472C62.653 15.7344 62.0421 14.2548 60.8211 13.0331C59.5994 11.812 58.1317 11.2012 56.4173 11.2012C54.7024 11.2012 53.2347 11.812 52.0136 13.0331C50.7925 14.2542 50.1817 15.7338 50.1817 17.472C50.1817 19.1869 50.7925 20.6546 52.0136 21.8757Z" fill="#EFEFEF"/>
<path d="M91.0202 0.731463C90.9904 0.701607 90.9599 0.671752 90.9301 0.650256C90.4852 0.243623 89.8988 0 89.248 0C87.8657 0 86.7491 1.1172 86.7491 2.49892V8.03236V8.13506C86.7365 8.1267 86.7192 8.11774 86.7061 8.10938C84.8144 6.85963 82.752 6.23505 80.514 6.23505C77.4114 6.23505 74.7626 7.33075 72.5671 9.52992C70.3721 11.7255 69.2764 14.3701 69.2764 17.4727C69.2764 20.5711 70.3721 23.2199 72.5671 25.4155C74.7626 27.6111 77.4114 28.7104 80.514 28.7104C83.6124 28.7104 86.2612 27.6105 88.4568 25.4155C90.6524 23.2199 91.7517 20.5711 91.7517 17.4727V2.49892C91.7523 1.80985 91.474 1.18527 91.0202 0.731463ZM84.9177 21.8764C83.6936 23.0963 82.2259 23.7078 80.514 23.7078C78.7979 23.7078 77.3302 23.0957 76.1103 21.8764C74.8862 20.6565 74.279 19.1888 74.279 17.4727C74.279 15.7566 74.8868 14.2889 76.1103 13.069C77.3296 11.8491 78.7979 11.2377 80.514 11.2377C82.2259 11.2377 83.6936 11.8497 84.9177 13.069C86.1376 14.2889 86.7491 15.7566 86.7491 17.4727C86.7497 19.1888 86.1376 20.6565 84.9177 21.8764Z" fill="#EFEFEF"/>
<path d="M16.758 0.930864L14.5475 2.12867C13.9318 2.46246 13.5491 3.10615 13.5491 3.80536V14.2375H5.31729V10.88V9.71738C5.31729 8.62108 4.14217 7.92126 3.17903 8.44433L0.996583 9.6284C0.382751 9.96219 0 10.6041 0 11.3033V20.3681V24.5001C0 25.17 0.351699 25.7904 0.926718 26.135L3.12469 27.4534C4.09022 28.032 5.31729 27.3382 5.31729 26.212V18.978H13.5497V28.8208C13.5497 29.4908 13.9014 30.1112 14.4764 30.4557L16.7042 31.7914C17.6698 32.37 18.8968 31.6762 18.8968 30.55V2.20391C18.8968 1.10582 17.7235 0.406002 16.758 0.930864Z" fill="url(#paint0_linear_201_1660)"/>
<defs>
<linearGradient id="paint0_linear_201_1660" x1="6.18853" y1="22.6567" x2="25.1866" y2="11.8007" gradientUnits="userSpaceOnUse">
<stop offset="1.38522e-07" stop-color="#3050FF"/>
<stop offset="1" stop-color="#3D87FF"/>
</linearGradient>
</defs>
</svg>
