<svg width="31" height="48" viewBox="0 0 31 48" fill="none" xmlns="http://www.w3.org/2000/svg">
<path d="M26.7279 0.272801L23.3328 2.11317C22.3868 2.62628 21.799 3.61513 21.799 4.68859V20.7136H9.15373V15.5561V13.7696C9.15373 12.0852 7.34852 11.0107 5.86853 11.8139L2.51631 13.6322C1.5736 14.1454 0.985779 15.1309 0.985779 16.2055V30.1297V36.477C0.985779 37.5054 1.52526 38.4591 2.40973 38.9887L5.78613 41.0137C7.26831 41.9025 9.15483 40.8368 9.15483 39.1063V27.9959H21.8001V43.1155C21.8001 44.144 22.3396 45.0976 23.2241 45.6272L26.6455 47.6797C28.1277 48.5685 30.0142 47.5028 30.0142 45.7723V2.22964C30.0131 0.541989 28.2101 -0.532567 26.7279 0.272801Z" fill="url(#paint0_linear_202_1848)"/>
<defs>
<linearGradient id="paint0_linear_202_1848" x1="10.492" y1="33.6461" x2="39.6747" y2="16.9702" gradientUnits="userSpaceOnUse">
<stop offset="1.38522e-07" stop-color="#3050FF"/>
<stop offset="1" stop-color="#3D87FF"/>
</linearGradient>
</defs>
</svg>
