<svg width="171" height="178" viewBox="0 0 171 178" fill="none" xmlns="http://www.w3.org/2000/svg">
<path d="M64.2489 75.5867C63.4317 75.9273 62.8361 76.0103 62.4621 75.8356C62.0979 75.6568 61.9158 75.1354 61.916 74.2714L62.1236 70.6012L62.1243 67.1612C62.1244 66.8945 62.1736 66.7033 62.2721 66.5876C62.3706 66.4612 62.5872 66.3283 62.9219 66.1887L63.9262 65.8021C65.1864 65.3514 66.417 64.8757 67.6182 64.375C67.8741 64.2683 68.076 64.2641 68.2236 64.3626C68.3811 64.4569 68.4598 64.6427 68.4598 64.9201C68.4597 64.9734 68.445 65.0222 68.4154 65.0665C68.3859 65.1109 68.3514 65.1359 68.312 65.1416L67.618 65.143L62.9955 67.1979C62.9365 67.2226 62.902 67.2316 62.8922 67.225C62.9315 67.294 62.9512 67.3604 62.9512 67.4244L62.9506 70.2564C63.4035 70.0996 63.8416 69.933 64.2649 69.7565C64.9935 69.4528 65.7959 69.0809 66.6722 68.641C66.7608 68.5934 66.8937 68.5273 67.0709 68.4428C67.258 68.3435 67.3614 68.3004 67.381 68.3135C67.4401 68.3529 67.4844 68.3931 67.5139 68.4341C67.5434 68.4751 67.5631 68.5416 67.5729 68.6335C67.6024 68.8558 67.2726 69.148 66.5834 69.5099C65.904 69.8678 64.9933 70.3061 63.8512 70.8249C63.4673 70.9849 63.1473 71.129 62.8913 71.257C62.7731 71.6263 62.7139 72.1629 62.7137 72.8669L62.7283 73.8048L62.7281 74.8448C62.8856 74.9178 63.0579 74.9366 63.2449 74.9013C63.432 74.866 63.7372 74.7601 64.1605 74.5836C64.6036 74.3989 65.0368 74.1916 65.4601 73.9618C65.8933 73.7279 66.1493 73.5892 66.2281 73.5457C67.0551 73.0943 67.6705 72.7844 68.0742 72.6161C68.3104 72.5176 68.4729 72.4766 68.5615 72.493C68.6599 72.4946 68.7091 72.5541 68.7091 72.6714C68.709 73.3754 67.3896 74.2774 64.751 75.3773L64.2489 75.5867ZM79.5701 69.1997C79.4224 69.2613 79.3338 69.2556 79.3043 69.1825C79.2747 69.0988 79.26 68.961 79.2601 68.769C79.2699 68.6902 79.2749 68.6028 79.2749 68.5068C79.2749 68.4002 79.2798 68.3181 79.2897 68.2607C79.3489 67.7241 79.3785 67.2264 79.3786 66.7677C79.3788 65.7544 79.2215 65.0308 78.9066 64.5968C78.5916 64.1521 78.0945 64.0714 77.4152 64.3546C77.041 64.5105 76.6669 64.7678 76.2927 65.1264C75.9284 65.481 75.628 65.8568 75.3917 66.254C75.1652 66.647 75.0519 66.9662 75.0518 67.2116C75.101 67.5004 75.1895 67.8421 75.3174 68.2368C75.3273 68.286 75.3666 68.4349 75.4355 68.6835C75.5142 68.928 75.5535 69.1623 75.5534 69.3863L75.5681 69.6841C75.5681 69.8548 75.4893 69.9729 75.3318 70.0386C75.1349 70.1207 74.9725 70.0497 74.8445 69.8258C74.7265 69.5977 74.5936 69.2211 74.4461 68.696C74.2985 68.1816 74.1559 67.7664 74.0181 67.4505C73.8804 67.1347 73.6934 66.8926 73.4571 66.7245C73.2209 66.5563 72.9206 66.5482 72.5564 66.7C72.0542 66.9093 71.6604 67.2602 71.3748 67.7525C71.099 68.2408 70.9611 68.7569 70.961 69.3009C70.9609 69.6636 70.9903 70.1313 71.0493 70.704C71.0984 71.1314 71.1229 71.5052 71.1229 71.8252C71.1228 72.0172 71.1031 72.1694 71.0637 72.2818C71.0243 72.3942 70.9308 72.4812 70.7831 72.5428C70.5862 72.6249 70.4483 72.613 70.3696 72.5072C70.2909 72.3907 70.2515 72.1831 70.2516 71.8844C70.2517 71.2977 70.2224 70.6007 70.1635 69.7933C70.1536 69.6908 70.134 69.427 70.1046 69.002C70.0751 68.5663 70.0703 68.1203 70.0901 67.6641L70.105 67.13C70.1641 67.0413 70.233 66.9806 70.3117 66.9478C70.42 66.9026 70.5086 66.9404 70.5775 67.061C70.6563 67.1668 70.6956 67.3637 70.6955 67.6517C70.8433 67.3128 71.0599 66.9719 71.3455 66.6288C71.6311 66.2858 71.9314 66.0486 72.2464 65.9173C72.7879 65.6916 73.2359 65.6275 73.5902 65.7251C73.9545 65.8079 74.2842 66.0544 74.5795 66.4646C74.8553 65.8057 75.2689 65.1693 75.8203 64.5554C76.3816 63.9375 76.9576 63.5054 77.5483 63.2591C78.1587 63.0047 78.6657 63.044 79.0693 63.377C79.4827 63.706 79.7828 64.1835 79.9697 64.8095C80.1665 65.4314 80.2648 66.041 80.2647 66.6384C80.2645 67.1717 80.2201 67.7022 80.1314 68.2298C80.0525 68.7533 79.8654 69.0766 79.5701 69.1997ZM84.5081 67.1412C83.9272 67.3834 83.4005 67.4643 82.9279 67.384C82.4653 67.2889 82.1011 67.046 81.8354 66.6555C81.5795 66.2502 81.4516 65.7223 81.4518 65.0716C81.452 64.0049 81.8115 63.0605 82.5304 62.2382C83.259 61.4118 84.1501 60.779 85.2036 60.3399C85.686 60.1388 86.1339 60.08 86.5474 60.1636C86.9707 60.2431 87.3103 60.4695 87.5662 60.8428C87.822 61.2161 87.9499 61.7174 87.9498 62.3468C87.9496 63.0294 87.787 63.6945 87.462 64.3419C87.137 64.9787 86.7087 65.5466 86.1769 66.0455C85.6551 66.5297 85.0988 66.895 84.5081 67.1412ZM84.3458 66.2969C85.2614 65.9152 85.9556 65.4019 86.4283 64.7569C86.9009 64.1119 87.1374 63.3574 87.1376 62.4934C87.1377 61.9067 86.9507 61.478 86.5767 61.2073C86.2125 60.9325 85.7006 60.9326 85.0409 61.2076C84.5979 61.3923 84.1499 61.6697 83.697 62.0398C83.2441 62.4099 82.8699 62.8379 82.5744 63.3237C82.279 63.8095 82.1312 64.3084 82.1311 64.8204C82.131 65.2471 82.2294 65.606 82.4262 65.8973C82.623 66.1778 82.8888 66.3604 83.2235 66.4448C83.568 66.5145 83.9421 66.4652 84.3458 66.2969ZM89.7641 71.6215C88.9174 71.9745 88.2135 71.8946 87.6525 71.3819C87.0914 70.8798 86.7471 69.9622 86.6194 68.6288C86.6194 68.5968 86.6194 68.5222 86.6194 68.4048C86.6096 68.2916 86.6293 68.1821 86.6786 68.0762C86.718 67.9851 86.7869 67.9084 86.8854 67.846C86.9346 67.8362 86.9838 67.885 87.033 67.9925C87.0723 68.1041 87.1215 68.3022 87.1805 68.5869C87.3084 69.1415 87.451 69.61 87.6085 69.9924C87.7659 70.3747 88.007 70.6741 88.3318 70.8907C88.6567 71.1073 89.0751 71.1088 89.587 70.8954C90.0005 70.723 90.2861 70.4813 90.4437 70.1703C90.6111 69.8552 90.7047 69.4269 90.7245 68.8854L90.7394 68.2072C90.7397 66.7992 90.6219 65.3978 90.3859 64.003C90.1598 62.5934 89.8353 60.9955 89.4124 59.2093C89.4222 59.1625 89.4321 59.0944 89.4419 59.005C89.4518 58.9049 89.4814 58.8286 89.5306 58.776C89.5897 58.7194 89.6832 58.6644 89.8112 58.6111C90.0278 58.6594 90.2639 59.2489 90.5196 60.3796C90.7852 61.4954 91.0064 62.8217 91.1833 64.3585C91.37 65.9019 91.4632 67.2709 91.4629 68.4655C91.4628 69.3295 91.3051 70.0192 90.99 70.5346C90.6748 71.0499 90.2662 71.4122 89.7641 71.6215ZM89.8558 57.1046C89.6392 57.1949 89.4768 57.1719 89.3685 57.0358C89.2701 56.8955 89.2209 56.692 89.221 56.4253C89.221 56.308 89.226 56.2206 89.2358 56.1632C89.226 55.9966 89.3146 55.8743 89.5017 55.7963C89.6395 55.7389 89.7774 55.7188 89.9152 55.736C90.0628 55.7384 90.1071 55.7679 90.0481 55.8246C90.1465 56.0609 90.1956 56.259 90.1956 56.419C90.1956 56.5577 90.166 56.682 90.1069 56.7919C90.0478 56.8912 89.9641 56.9954 89.8558 57.1046ZM92.7811 63.6924C92.5547 63.7868 92.3726 63.5054 92.2349 62.8482C92.0972 62.1803 92.0088 61.5933 91.9695 61.087C91.9302 60.5808 91.8763 59.7767 91.8076 58.6747C91.7978 58.4975 91.7929 58.2649 91.793 57.9769C91.793 57.6142 91.8177 57.3533 91.867 57.1941C91.9261 57.0308 92.0196 56.9225 92.1476 56.8691C92.2559 56.824 92.3396 56.8158 92.3987 56.8445C92.4676 56.8584 92.5266 56.9085 92.5758 56.9946L92.5609 57.6408C92.5608 58.3234 92.5902 58.9565 92.6491 59.5398C92.7179 60.1191 92.8211 60.892 92.9587 61.8585C93.0374 62.2737 93.0914 62.6191 93.1209 62.8948C93.1406 63.036 93.1159 63.1955 93.047 63.3736C92.978 63.541 92.8894 63.6473 92.7811 63.6924ZM92.4138 55.0463C92.1972 55.1366 92.0348 55.1137 91.9265 54.9775C91.8281 54.8372 91.7789 54.6337 91.779 54.3671C91.779 54.2497 91.7839 54.1623 91.7938 54.1049C91.784 53.9383 91.8726 53.8161 92.0597 53.7381C92.1975 53.6806 92.3354 53.6605 92.4732 53.6777C92.6208 53.6801 92.6651 53.7097 92.6061 53.7663C92.7045 54.0026 92.7536 54.2007 92.7536 54.3607C92.7536 54.4994 92.724 54.6237 92.6649 54.7337C92.6058 54.833 92.5221 54.9372 92.4138 55.0463ZM62.6148 92.2504C61.5909 92.6773 60.6999 92.8567 59.9419 92.7887C59.1937 92.706 58.8198 92.1739 58.82 91.1926C58.8201 90.8406 58.9186 90.4582 59.1156 90.0455C59.3125 89.6327 59.603 89.245 59.9871 88.8822C60.3711 88.5088 60.8388 88.2072 61.3901 87.9774C61.8135 87.8009 62.1728 87.6724 62.4682 87.592C62.7635 87.5115 63.1032 87.4872 63.4871 87.5192C63.871 87.5511 64.2697 87.6889 64.6831 87.9325C64.5257 87.2622 64.2896 86.7153 63.9747 86.292C63.6597 85.8687 63.3054 85.5898 62.9116 85.4553C62.5277 85.306 62.1487 85.3094 61.7746 85.4653C61.5974 85.5392 61.43 85.6463 61.2724 85.7866C61.1247 85.9122 60.9426 86.0841 60.726 86.3024C60.4798 86.5757 60.2976 86.737 60.1795 86.7862C60.1303 86.8067 60.086 86.8092 60.0466 86.7936C60.0171 86.7633 60.0023 86.7214 60.0023 86.6681C60.0024 86.2414 60.1748 85.8389 60.5194 85.4606C60.8739 85.0782 61.3022 84.793 61.8043 84.605C62.4935 84.3604 63.1235 84.4177 63.6944 84.777C64.2653 85.1256 64.7131 85.6695 65.0379 86.4088C65.3724 87.1439 65.5396 87.9328 65.5394 88.7754C65.5394 88.9141 65.5295 89.1155 65.5097 89.3798L65.0372 89.5448C64.6632 88.8794 64.1809 88.4992 63.5903 88.4041C63.0095 88.2942 62.4237 88.3624 61.833 88.6087C61.0749 88.9247 60.5333 89.2731 60.2084 89.6539C59.8834 90.0347 59.7209 90.4597 59.7208 90.9291C59.7207 91.4197 59.9471 91.72 60.3999 91.8299C60.8527 91.9397 61.4336 91.8469 62.1424 91.5514C62.5363 91.3872 62.8513 91.2346 63.0876 91.0934C63.3239 90.9416 63.5701 90.7696 63.8261 90.5776C64.0328 90.4167 64.215 90.2875 64.3725 90.1898C64.5301 90.0921 64.7319 89.992 64.978 89.8894C65.2537 89.7745 65.426 89.724 65.4949 89.7379C65.5737 89.7477 65.613 89.8273 65.613 89.9767C65.613 90.0833 65.4111 90.3008 65.0074 90.6291C64.6037 90.9573 64.1508 91.2901 63.6486 91.6275C63.1465 91.9648 62.8019 92.1724 62.6148 92.2504ZM60.8002 84.2716C60.6132 84.3496 60.4507 84.332 60.3129 84.2188C60.1751 84.0949 60.1063 83.9583 60.1063 83.809C60.1063 83.713 60.1851 83.5255 60.3427 83.2465C60.5101 82.9634 60.6381 82.8034 60.7267 82.7664C61.0122 82.6474 61.2288 82.6478 61.3765 82.7675C61.5241 82.8873 61.5979 83.0539 61.5979 83.2672C61.5978 83.4059 61.5092 83.5921 61.3319 83.826C61.1645 84.0451 60.9873 84.1937 60.8002 84.2716ZM63.1188 83.3051C62.9121 83.3913 62.7447 83.3757 62.6168 83.2584C62.4888 83.1304 62.4249 82.9918 62.4249 82.8424C62.4249 82.7464 62.5037 82.5589 62.6613 82.2799C62.8287 81.9968 62.9616 81.8348 63.0601 81.7937C63.3259 81.6829 63.5327 81.6874 63.6803 81.8071C63.8279 81.9269 63.9017 82.0935 63.9017 82.3068C63.9017 82.4455 63.813 82.6317 63.6358 82.8656C63.4684 83.0847 63.2961 83.2312 63.1188 83.3051ZM67.693 90.1975C67.5551 90.2976 67.4764 90.3518 67.4567 90.36C67.3779 90.3928 67.2942 90.385 67.2056 90.3366C66.8809 89.9494 66.6448 89.1359 66.4974 87.8961C66.3598 86.6523 66.2911 85.561 66.2913 84.6223C66.2914 84.473 66.3898 84.3573 66.5868 84.2752C66.8821 84.1521 67.0298 84.2665 67.0297 84.6185C67.0297 84.7145 67.0247 84.7966 67.0149 84.8647C67.1035 84.6037 67.2709 84.3046 67.5171 83.9673C67.7633 83.6301 68.0489 83.3137 68.3738 83.0183C68.6987 82.7228 69.0286 82.5053 69.3633 82.3658C70.4168 81.9266 71.1846 82.1132 71.6668 82.9254C72.149 83.727 72.39 84.8744 72.3897 86.3677C72.3896 86.8797 72.3402 87.3109 72.2417 87.6613C72.1432 88.001 72.0103 88.2057 71.8429 88.2755C71.6657 88.3494 71.5771 88.3277 71.5771 88.2103C71.6461 87.6163 71.6807 87.0472 71.6808 86.5032C71.6811 85.1272 71.4598 84.1796 71.0169 83.6603C70.574 83.1303 69.9883 83.0172 69.2598 83.3209C68.9053 83.4686 68.5607 83.7083 68.2259 84.0398C67.901 84.3673 67.6351 84.7448 67.4283 85.1723C67.2313 85.5957 67.1327 86.0261 67.1327 86.4634C67.1325 86.9541 67.1571 87.3705 67.2062 87.7126C67.2554 88.0548 67.334 88.4593 67.4422 88.9261C67.5603 89.3782 67.6438 89.802 67.693 90.1975ZM76.0985 86.6135C75.6358 86.8064 75.2321 86.804 74.8876 86.6063C74.553 86.4045 74.2971 86.0685 74.12 85.5984C73.9527 85.1242 73.8692 84.5937 73.8693 84.0071C73.8695 82.9831 74.0666 82.037 74.4606 81.1688C74.8644 80.2965 75.4749 79.6901 76.2921 79.3494C76.7843 79.1442 77.2126 79.0617 77.5768 79.1018C77.9509 79.1272 78.4382 79.2334 79.0387 79.4203L79.4226 79.5483C79.3734 79.2168 79.2997 78.8422 79.2013 78.4246C79.103 78.007 79.039 77.719 79.0095 77.5606C78.8423 76.7984 78.7194 76.2311 78.6407 75.8586C78.5719 75.4713 78.5375 75.1177 78.5376 74.7977C78.5377 74.2323 78.6855 73.8881 78.9808 73.765C79.0891 73.9758 79.2169 74.4718 79.3644 75.2529C79.5119 76.0233 79.6988 77.0867 79.9249 78.443C80.1608 79.8804 80.3673 81.0476 80.5443 81.9444C80.7213 82.8412 80.8689 83.3876 80.987 83.5837C80.9869 83.829 80.8195 84.0215 80.4848 84.161C80.2288 84.2677 80.0516 84.1816 79.9532 83.9026C79.8647 83.6196 79.8107 83.0822 79.7912 82.2904L79.673 82.3396C79.2593 83.3227 78.7226 84.213 78.0628 85.0107C77.4031 85.8083 76.7483 86.3426 76.0985 86.6135ZM76.2907 85.7494C76.6943 85.5812 77.1276 85.2192 77.5904 84.6637C78.063 84.0933 78.4619 83.4791 78.7869 82.821C79.1119 82.1522 79.2745 81.6045 79.2746 81.1778L79.2747 80.6978C78.2608 79.9686 77.3256 79.7825 76.4691 80.1396C75.8685 80.3899 75.4057 80.8228 75.0807 81.4383C74.7557 82.043 74.5931 82.7294 74.593 83.4974L74.6077 83.8273C74.6666 84.6133 74.8338 85.1835 75.1094 85.5379C75.3849 85.8924 75.7787 85.9628 76.2907 85.7494ZM85.3511 82.7723C84.721 83.035 84.1401 83.1438 83.6085 83.0988C83.077 83.0537 82.6537 82.8516 82.3387 82.4922C82.0238 82.1329 81.8664 81.6332 81.8665 80.9932C81.8667 80.2786 81.9899 79.5606 82.2362 78.8393C82.4824 78.1074 82.8419 77.4562 83.3146 76.8859C83.7971 76.3008 84.3583 75.8749 84.9983 75.6081C85.6677 75.329 86.1747 75.3523 86.5192 75.678C86.8637 75.993 87.026 76.5066 87.0062 77.2188C87.0061 77.8481 86.7746 78.4246 86.3118 78.9482C85.8588 79.4676 85.2779 79.8751 84.569 80.1706C84.4607 80.2158 84.2983 80.2728 84.0817 80.3418C83.7273 80.4469 83.4762 80.4929 83.3285 80.4798C83.1809 80.4667 83.1071 80.3481 83.1071 80.1241C83.1071 80.0494 83.1268 79.9879 83.1662 79.9395C83.2056 79.8804 83.2844 79.8262 83.4025 79.777C83.5305 79.7236 83.757 79.6612 84.0818 79.5898C84.3969 79.5224 84.6775 79.4375 84.9236 79.3349C85.8294 78.9573 86.2824 78.3418 86.2826 77.4885C86.2827 76.9765 86.1941 76.6081 86.017 76.3833C85.8497 76.1544 85.5494 76.1302 85.1162 76.3108C84.6437 76.5078 84.2203 76.823 83.8461 77.2563C83.4719 77.6789 83.1814 78.152 82.9745 78.6755C82.7775 79.1949 82.679 79.7 82.6789 80.1906C82.6787 81.0333 82.8951 81.6363 83.3282 81.9998C83.7613 82.3525 84.4307 82.3401 85.3365 81.9625C85.4448 81.9173 85.627 81.8307 85.8829 81.7027C85.9912 81.6469 86.1242 81.5595 86.2817 81.4405C86.4392 81.3215 86.5525 81.2369 86.6214 81.1869C87.0448 80.8504 87.3549 80.6411 87.5518 80.559C87.6995 80.4975 87.8127 80.4929 87.8915 80.5454C87.6453 81.0534 87.276 81.5059 86.7837 81.9032C86.3012 82.2856 85.8237 82.5753 85.3511 82.7723ZM89.7851 80.9239C89.3817 80.2389 89.0619 79.3696 88.8259 78.3161C88.5997 77.2585 88.4866 76.3083 88.4868 75.4657C88.4869 75.135 88.5559 74.8929 88.6937 74.7395C88.7725 74.6533 88.8316 74.602 88.871 74.5856C88.9399 74.5569 88.9891 74.595 89.0186 74.7C89.058 74.801 89.0973 74.9979 89.1366 75.2908L89.2103 75.836C89.3188 75.2149 89.5256 74.6753 89.8309 74.2174C90.146 73.7448 90.53 73.414 90.9829 73.2252C91.485 73.0159 91.8591 72.9666 92.1052 73.0774C92.3513 73.1774 92.4743 73.4674 92.4742 73.9474C91.982 73.8967 91.534 73.9554 91.1304 74.1237C90.7464 74.2837 90.4166 74.5332 90.1408 74.8722C89.8651 75.2111 89.6731 75.6218 89.5647 76.1043C89.476 76.4399 89.4316 76.741 89.4316 77.0077C89.4315 77.2957 89.4659 77.5533 89.5348 77.7806C89.6135 77.9931 89.7316 78.2478 89.889 78.5448C90.0366 78.8566 90.1498 79.1294 90.2285 79.3632C90.317 79.5929 90.3662 79.8604 90.376 80.1657C90.3759 80.347 90.3168 80.5049 90.1987 80.6395C90.0805 80.7635 89.9427 80.8582 89.7851 80.9239ZM94.4603 79.039C94.3224 79.1391 94.2437 79.1933 94.224 79.2015C94.1452 79.2343 94.0615 79.2265 93.9729 79.1781C93.6482 78.7909 93.4121 77.9774 93.2647 76.7376C93.1271 75.4938 93.0584 74.4025 93.0586 73.4638C93.0587 73.3145 93.1571 73.1988 93.354 73.1167C93.6494 72.9936 93.7971 73.108 93.797 73.46C93.797 73.556 93.792 73.6381 93.7822 73.7062C93.8708 73.4452 94.0382 73.1461 94.2844 72.8089C94.5306 72.4716 94.8162 72.1552 95.1411 71.8598C95.466 71.5643 95.7959 71.3468 96.1306 71.2073C97.1841 70.7681 97.9519 70.9547 98.4341 71.7669C98.9163 72.5685 99.1573 73.7159 99.157 75.2092C99.1568 75.7212 99.1075 76.1524 99.009 76.5028C98.9105 76.8425 98.7775 77.0473 98.6102 77.117C98.433 77.1909 98.3444 77.1692 98.3444 77.0518C98.4134 76.4578 98.448 75.8887 98.4481 75.3447C98.4484 73.9687 98.2271 73.0211 97.7842 72.5018C97.3413 71.9718 96.7556 71.8587 96.0271 72.1624C95.6726 72.3102 95.328 72.5498 94.9932 72.8813C94.6683 73.2088 94.4024 73.5863 94.1956 74.0138C93.9986 74.4372 93.9 74.8676 93.8999 75.3049C93.8998 75.7956 93.9244 76.212 93.9735 76.5541C94.0227 76.8963 94.1013 77.3008 94.2095 77.7676C94.3276 78.2197 94.4111 78.6435 94.4603 79.039Z" fill="white"/>
<path d="M98.1844 88.5416C113.928 114.144 103.267 136.902 76.3111 144.665" stroke="white"/>
<path d="M67.1794 133.563C64.069 138.629 58.2105 149.294 59.659 151.429C61.4697 154.097 86.2234 153.801 87.659 153.569" stroke="white"/>
</svg>
