<svg width="171" height="178" viewBox="0 0 171 178" fill="none" xmlns="http://www.w3.org/2000/svg">
<path d="M56.5624 77.7528C56.4442 77.802 56.3605 77.8049 56.3113 77.7614C56.2719 77.7138 56.2523 77.6314 56.2523 77.514C56.2523 77.2794 56.3017 76.8962 56.4002 76.3645C56.5086 75.8713 56.5628 75.4808 56.5629 75.1928C56.5631 74.3608 56.5042 73.7507 56.3861 73.3626L55.9283 73.5535C55.5246 73.7218 54.9979 73.9307 54.3481 74.1802L52.9599 74.7429L50.9662 75.574L50.9956 76.1857C50.9955 76.6764 51.0692 77.2589 51.2167 77.9334C51.2659 78.2115 51.3101 78.4971 51.3494 78.79C51.3986 79.0681 51.4232 79.3299 51.4231 79.5752L51.4231 79.7192C51.3246 79.8669 51.2212 79.9633 51.1129 80.0085C50.8569 80.1152 50.6552 79.874 50.5076 79.2849C50.3601 78.6851 50.2864 77.9212 50.2866 76.9932C50.2867 76.6199 50.3015 76.2457 50.3312 75.8708C50.1146 75.9504 49.9669 75.9746 49.8881 75.9435C49.8094 75.9016 49.77 75.806 49.7701 75.6567C49.7701 75.5394 49.7996 75.4471 49.8587 75.3798C49.9277 75.3084 50.0458 75.2271 50.2132 75.136L50.1985 74.7102L50.243 73.9557C50.3121 72.7216 50.4157 71.6972 50.5537 70.8824C50.6917 70.0676 50.9872 69.2885 51.4403 68.545C51.8933 67.8016 52.5727 67.241 53.4784 66.8635C54.5122 66.4325 55.3194 66.6986 55.9 67.6618C56.4806 68.625 56.8742 69.8048 57.0806 71.2013C57.287 72.5978 57.3901 73.8293 57.3899 74.896C57.3898 75.28 57.3799 75.6201 57.3602 75.9163C57.3404 76.2019 57.3009 76.5649 57.2418 77.0056C57.0153 77.4093 56.7888 77.6584 56.5624 77.7528ZM56.3272 72.7633C56.1405 70.8679 55.8061 69.4608 55.3239 68.5419C54.8418 67.6123 54.1182 67.3487 53.1534 67.7509C52.4347 68.0505 51.9029 68.6348 51.5582 69.5038C51.2233 70.358 51.0213 71.2101 50.9522 72.0602C50.8831 72.9103 50.8484 73.8473 50.8482 74.8713L56.3272 72.7633ZM65.515 73.9247C65.3378 73.9986 65.195 73.9781 65.0868 73.8632C64.9884 73.7336 64.8998 73.5145 64.8211 73.206C64.7424 72.8869 64.6195 72.3302 64.4523 71.5359C64.2848 72.3204 63.9696 73.0224 63.5068 73.642C63.0439 74.2509 62.4778 74.6949 61.8083 74.9739C61.1979 75.2284 60.681 75.2145 60.2578 74.9324C59.8444 74.6354 59.5344 74.1514 59.3278 73.4802C59.1212 72.7984 59.018 72.0148 59.0182 71.1295C59.0183 70.7242 59.0528 70.3631 59.1218 70.0464C59.2006 69.7149 59.2942 69.4519 59.4025 69.2574C59.5207 69.0589 59.634 68.9423 59.7422 68.9078C59.8604 68.8586 59.9194 68.9193 59.9194 69.09C59.9194 69.2286 59.8849 69.4617 59.8159 69.7891C59.7469 70.1485 59.7124 70.5415 59.7123 70.9682C59.7121 71.6082 59.7957 72.1973 59.9629 72.7355C60.14 73.2696 60.3959 73.6642 60.7305 73.9194C61.075 74.1597 61.4787 74.1834 61.9414 73.9905C62.3254 73.8305 62.6749 73.5621 62.99 73.1854C63.3051 72.8088 63.5513 72.3968 63.7286 71.9496C63.9158 71.4983 64.0094 71.0913 64.0095 70.7286L64.01 68.1846C64.1184 67.9155 64.2661 67.7419 64.4531 67.6639C64.6205 67.5942 64.7337 67.7016 64.7927 67.9863C64.8517 68.2711 64.8812 68.6961 64.881 69.2614C64.8809 69.7414 64.8759 70.1115 64.866 70.3716C64.925 70.6989 65.0136 71.0193 65.1316 71.3327C65.2595 71.6421 65.417 71.9871 65.6039 72.3677C65.8303 72.8387 65.9434 73.1381 65.9434 73.2661C65.9433 73.5861 65.8005 73.8057 65.515 73.9247ZM67.2039 71.4128C67.3418 71.238 67.4747 71.1239 67.6027 71.0706C67.7208 71.0213 67.8341 71.0114 67.9423 71.041C68.0605 71.0664 68.1786 71.1131 68.2967 71.1812C68.4148 71.2386 68.5083 71.2796 68.5773 71.3042C68.8037 71.4018 69.1138 71.4219 69.5076 71.3644C69.9013 71.3069 70.3198 71.1858 70.7628 71.0011C71.2649 70.7918 71.7129 70.5037 72.1068 70.1369C72.5105 69.7552 72.7124 69.3884 72.7125 69.0364C72.7125 68.7164 72.6043 68.5109 72.3877 68.4199C72.1712 68.3182 71.9103 68.2883 71.6051 68.3302C71.2999 68.3721 70.8963 68.4603 70.3942 68.595C69.7148 68.7929 69.1734 68.9119 68.7697 68.9522C68.3759 68.9884 68.0609 68.9117 67.8247 68.7222C67.5885 68.5221 67.4704 68.1553 67.4705 67.622C67.4707 67.046 67.7218 66.5146 68.224 66.028C68.7262 65.5307 69.3022 65.1466 69.952 64.8757C70.5427 64.6294 71.0448 64.5588 71.4582 64.6637C71.8815 64.7539 72.098 65.0476 72.1078 65.5449C72.1274 65.8246 72.088 66.0704 71.9895 66.2821C71.891 66.4831 71.7728 66.6124 71.635 66.6699C71.5562 66.7027 71.4873 66.6994 71.4283 66.6601C71.379 66.6166 71.3545 66.5415 71.3545 66.4348C71.3545 66.2642 71.4087 66.0549 71.517 65.8071C71.4679 65.5716 71.3055 65.4474 71.0298 65.4343C70.764 65.4171 70.4441 65.4865 70.0699 65.6424C69.5186 65.8723 69.0804 66.1669 68.7555 66.5264C68.4305 66.8751 68.268 67.1989 68.268 67.4975C68.2679 67.8175 68.386 68.0136 68.6223 68.0858C68.8585 68.1579 69.144 68.1616 69.4787 68.0967C69.8233 68.017 70.3106 67.8779 70.9407 67.6792C71.4625 67.5364 71.8859 67.4505 72.2107 67.4218C72.5455 67.3889 72.826 67.4799 73.0524 67.6948C73.2788 67.8991 73.3919 68.2839 73.3918 68.8492C73.3916 69.4359 73.1405 70.0046 72.6383 70.5552C72.1361 71.0952 71.5355 71.5109 70.8365 71.8023C69.9405 72.1758 69.1382 72.345 68.4294 72.3098C67.7304 72.2705 67.3219 71.9715 67.2039 71.4128ZM78.279 57.4208C78.722 57.2361 79.1453 57.1823 79.5489 57.2593C79.9525 57.3257 80.2774 57.4943 80.5234 57.765C80.7793 58.0316 80.9072 58.3516 80.9072 58.7249L80.5823 58.8604C80.4346 58.9219 80.3017 58.9293 80.1836 58.8826C80.0753 58.8317 79.9326 58.7366 79.7554 58.5971C79.4995 58.4052 79.2681 58.2776 79.0614 58.2145C78.8645 58.1472 78.6086 58.1793 78.2935 58.3106C77.752 58.5364 77.2991 58.9972 76.9347 59.693C76.5703 60.3782 76.3535 61.0978 76.2845 61.8519C76.2549 62.1949 76.24 62.5317 76.24 62.8624C76.2398 63.4064 76.2742 63.8933 76.343 64.3233C76.471 64.2912 76.7713 64.1927 77.2438 64.0277C77.7164 63.8627 78.1053 63.7273 78.4105 63.6214C78.5188 63.5762 78.7305 63.4986 79.0455 63.3886C79.144 63.3476 79.2129 63.3455 79.2523 63.3825C79.3015 63.4046 79.3261 63.4743 79.3261 63.5917C79.326 63.8797 79.0257 64.1489 78.4251 64.3992C77.9033 64.6167 77.2486 64.7883 76.461 64.914C76.5692 65.3489 76.7069 65.7341 76.8742 66.0696C77.0415 66.3945 77.258 66.7789 77.5237 67.2228C77.7107 67.5394 77.8485 67.7913 77.937 67.9784C78.0256 68.1548 78.0699 68.3176 78.0698 68.467C78.0698 68.5843 78.0353 68.684 77.9664 68.7661C77.8975 68.8375 77.799 68.8998 77.671 68.9532C77.4052 69.064 77.1542 68.8647 76.918 68.3552C76.6917 67.8309 76.431 67.0863 76.1359 66.1215L75.8703 65.2883C75.6537 65.3999 75.3829 65.5768 75.058 65.8189C75.0284 65.8419 74.925 65.9169 74.7478 66.0442C74.5804 66.1566 74.4278 66.2415 74.29 66.299C74.1325 66.3647 74.0537 66.2962 74.0538 66.0935C74.0538 65.8268 74.1818 65.5975 74.4378 65.4054C74.6939 65.2027 74.9351 65.0488 75.1615 64.9438C75.388 64.828 75.5307 64.7525 75.5898 64.7172C75.5702 64.3201 75.5604 63.9616 75.5605 63.6416C75.5608 62.2656 75.7531 60.9962 76.1372 59.8335C76.5313 58.6559 77.2452 57.8517 78.279 57.4208ZM88.2874 64.4315C88.1102 64.5054 87.9674 64.4849 87.8592 64.3701C87.7607 64.2405 87.6722 64.0214 87.5935 63.7129C87.5148 63.3937 87.3919 62.837 87.2247 62.0428C87.0572 62.8272 86.742 63.5293 86.2792 64.1488C85.8163 64.7577 85.2502 65.2017 84.5807 65.4808C83.9703 65.7353 83.4534 65.7214 83.0302 65.4392C82.6168 65.1423 82.3068 64.6582 82.1002 63.9871C81.8936 63.3053 81.7904 62.5217 81.7906 61.6364C81.7907 61.231 81.8252 60.87 81.8942 60.5533C81.973 60.2218 82.0666 59.9588 82.1749 59.7643C82.2931 59.5657 82.4063 59.4492 82.5146 59.4147C82.6328 59.3655 82.6918 59.4262 82.6918 59.5968C82.6918 59.7355 82.6573 59.9685 82.5883 60.2959C82.5193 60.6553 82.4848 61.0483 82.4847 61.475C82.4845 62.115 82.5681 62.7041 82.7353 63.2424C82.9124 63.7765 83.1683 64.1711 83.5029 64.4262C83.8474 64.6666 84.2511 64.6903 84.7138 64.4974C85.0978 64.3373 85.4473 64.069 85.7624 63.6923C86.0775 63.3156 86.3237 62.9037 86.501 62.4565C86.6882 62.0052 86.7818 61.5982 86.7819 61.2355L86.7824 58.6915C86.8908 58.4224 87.0385 58.2488 87.2255 58.1708C87.3929 58.101 87.5061 58.2085 87.5651 58.4932C87.6241 58.7779 87.6535 59.2029 87.6534 59.7683C87.6533 60.2483 87.6483 60.6183 87.6384 60.8784C87.6974 61.2058 87.7859 61.5262 87.904 61.8396C88.0319 62.1489 88.1894 62.4939 88.3763 62.8746C88.6026 63.3455 88.7158 63.645 88.7158 63.773C88.7157 64.093 88.5729 64.3125 88.2874 64.4315ZM83.5191 57.7641C83.3321 57.842 83.1696 57.8244 83.0318 57.7112C82.8941 57.5874 82.8252 57.4508 82.8252 57.3014C82.8252 57.2054 82.904 57.0179 83.0616 56.7389C83.229 56.4558 83.357 56.2958 83.4456 56.2588C83.7312 56.1398 83.9477 56.1402 84.0954 56.26C84.243 56.3797 84.3168 56.5463 84.3168 56.7596C84.3167 56.8983 84.2281 57.0846 84.0508 57.3184C83.8834 57.5375 83.7062 57.6861 83.5191 57.7641ZM85.8377 56.7975C85.631 56.8837 85.4636 56.8681 85.3357 56.7508C85.2077 56.6229 85.1438 56.4842 85.1438 56.3349C85.1438 56.2389 85.2226 56.0514 85.3802 55.7724C85.5476 55.4893 85.6806 55.3272 85.779 55.2861C86.0448 55.1753 86.2516 55.1798 86.3992 55.2996C86.5469 55.4193 86.6206 55.5859 86.6206 55.7992C86.6206 55.9379 86.5319 56.1242 86.3547 56.358C86.1873 56.5771 86.015 56.7236 85.8377 56.7975ZM90.7143 63.3878C90.498 62.3155 90.3309 61.0092 90.2131 59.4691C90.1052 57.9143 90.0513 56.3902 90.0517 54.8969C90.0518 54.1502 90.0667 53.4827 90.0964 52.8944C90.0964 52.7557 90.1949 52.6454 90.3918 52.5633C90.5493 52.4976 90.6478 52.4992 90.6871 52.5681C90.7364 52.633 90.7609 52.756 90.7609 52.9374C90.7605 54.6654 90.7897 56.1304 90.8485 57.3324C90.9074 58.5238 90.9858 59.803 91.084 61.1699C91.1429 62.052 91.1821 62.6489 91.2017 62.9607C91.2115 63.1272 91.1278 63.2474 90.9506 63.3213C90.8915 63.346 90.8128 63.3681 90.7143 63.3878ZM93.1949 62.3537C92.9786 61.2814 92.8115 59.9751 92.6937 58.4351C92.5857 56.8802 92.5319 55.3561 92.5323 53.8628C92.5324 53.1161 92.5473 52.4486 92.577 51.8603C92.577 51.7216 92.6755 51.6113 92.8724 51.5292C93.0299 51.4635 93.1284 51.4651 93.1677 51.5341C93.2169 51.5989 93.2415 51.7219 93.2415 51.9033C93.2411 53.6313 93.2703 55.0963 93.3291 56.2983C93.3879 57.4897 93.4664 58.7689 93.5646 60.1358C93.6234 61.0179 93.6627 61.6148 93.6823 61.9266C93.6921 62.0931 93.6084 62.2134 93.4312 62.2872C93.3721 62.3119 93.2934 62.334 93.1949 62.3537ZM98.3485 60.3173C97.7184 60.58 97.1376 60.6888 96.606 60.6438C96.0744 60.5988 95.6511 60.3966 95.3362 60.0373C95.0212 59.6779 94.8638 59.1783 94.8639 58.5383C94.8641 57.8236 94.9873 57.1056 95.2336 56.3844C95.4798 55.6524 95.8393 55.0013 96.312 54.4309C96.7945 53.8458 97.3557 53.4199 97.9957 53.1531C98.6652 52.874 99.1722 52.8973 99.5166 53.223C99.8611 53.538 100.023 54.0516 100.004 54.7638C100.003 55.3932 99.772 55.9696 99.3092 56.4932C98.8562 57.0126 98.2753 57.4201 97.5664 57.7156C97.4581 57.7608 97.2957 57.8178 97.0791 57.8868C96.7247 57.9919 96.4736 58.0379 96.326 58.0248C96.1783 58.0117 96.1045 57.8931 96.1045 57.6691C96.1046 57.5945 96.1243 57.5329 96.1636 57.4845C96.203 57.4254 96.2818 57.3712 96.4 57.322C96.5279 57.2686 96.7544 57.2062 97.0793 57.1348C97.3943 57.0675 97.6749 56.9825 97.921 56.8799C98.8268 56.5023 99.2798 55.8868 99.28 55.0335C99.2801 54.5215 99.1916 54.1531 99.0144 53.9283C98.8471 53.6994 98.5469 53.6753 98.1137 53.8559C97.6411 54.0529 97.2177 54.368 96.8435 54.8013C96.4693 55.2239 96.1788 55.697 95.972 56.2205C95.7749 56.7399 95.6764 57.245 95.6763 57.7357C95.6761 58.5783 95.8926 59.1814 96.3256 59.5448C96.7587 59.8975 97.4282 59.8851 98.3339 59.5075C98.4422 59.4624 98.6244 59.3758 98.8804 59.2477C98.9887 59.1919 99.1216 59.1045 99.2791 58.9855C99.4367 58.8665 99.5499 58.782 99.6188 58.7319C100.042 58.3954 100.352 58.1861 100.549 58.104C100.697 58.0425 100.81 58.0379 100.889 58.0904C100.643 58.5984 100.273 59.051 99.7811 59.4482C99.2986 59.8306 98.8211 60.1203 98.3485 60.3173ZM102.886 58.4898C102.748 58.59 102.669 58.6441 102.65 58.6523C102.571 58.6852 102.487 58.6774 102.399 58.629C102.074 58.2418 101.838 57.4283 101.69 56.1885C101.553 54.9446 101.484 53.8534 101.484 52.9147C101.484 52.7654 101.583 52.6497 101.78 52.5676C102.075 52.4444 102.223 52.5589 102.223 52.9109C102.223 53.0069 102.218 53.0889 102.208 53.157C102.296 52.8961 102.464 52.597 102.71 52.2597C102.956 51.9224 103.242 51.6061 103.567 51.3106C103.892 51.0152 104.222 50.7977 104.556 50.6582C105.61 50.219 106.378 50.4055 106.86 51.2178C107.342 52.0193 107.583 53.1668 107.583 54.6601C107.582 55.1721 107.533 55.6033 107.435 55.9537C107.336 56.2934 107.203 56.4981 107.036 56.5679C106.859 56.6418 106.77 56.62 106.77 56.5027C106.839 55.9086 106.874 55.3396 106.874 54.7956C106.874 53.4196 106.653 52.472 106.21 51.9526C105.767 51.4227 105.181 51.3095 104.453 51.6133C104.098 51.761 103.754 52.0007 103.419 52.3322C103.094 52.6597 102.828 53.0371 102.621 53.4647C102.424 53.8881 102.326 54.3185 102.326 54.7558C102.325 55.2465 102.35 55.6629 102.399 56.005C102.448 56.3471 102.527 56.7516 102.635 57.2185C102.753 57.6706 102.837 58.0944 102.886 58.4898ZM35.9406 100.54C36.1375 100.618 36.2359 100.748 36.2359 100.929C36.2358 101.217 36.0093 101.551 35.5564 101.932C35.1034 102.313 34.5914 102.67 34.0204 103.004C33.4493 103.328 32.9964 103.559 32.6617 103.699C32.2876 103.855 31.9282 103.941 31.5837 103.956C31.2489 103.957 31.0816 103.792 31.0817 103.462C31.0818 103.142 31.2443 102.658 31.5693 102.01C31.9042 101.359 32.303 100.67 32.7659 99.9437L30.8608 100.738C30.7623 100.779 30.7131 100.703 30.7132 100.511C30.7132 100.362 30.728 100.255 30.7575 100.189C30.7871 100.113 30.8265 100.059 30.8757 100.028C30.9249 99.9965 31.0185 99.9522 31.1563 99.8947L33.4306 98.9467C33.795 98.2935 34.0708 97.7519 34.2579 97.3219C34.4549 96.8772 34.5534 96.5001 34.5535 96.1908C34.5535 95.8814 34.4551 95.6452 34.2583 95.4819C33.9531 95.5451 33.6577 95.6363 33.3722 95.7553C32.8307 95.981 32.3729 96.2732 31.9987 96.6318C31.6245 96.9798 31.4177 97.322 31.3783 97.6584C31.1518 97.7528 30.9992 97.7738 30.9205 97.7213C30.8516 97.6646 30.8172 97.535 30.8172 97.3323C30.8173 97.119 30.9158 96.8753 31.1127 96.6012C31.3195 96.3124 31.6051 96.0333 31.9694 95.7641C32.3337 95.4843 32.7423 95.25 33.1952 95.0612C33.5693 94.9052 33.9631 94.789 34.3766 94.7127C34.6326 94.6593 34.8491 94.745 35.0263 94.9698C35.2034 95.1946 35.292 95.4883 35.2919 95.851C35.2918 96.171 35.1982 96.5459 35.0111 96.9759C34.8338 97.4018 34.5679 97.95 34.2133 98.6204L34.937 98.3187C35.3111 98.1627 35.5572 98.0815 35.6753 98.0749C35.8033 98.0642 35.8673 98.1229 35.8673 98.2509C35.8673 98.3575 35.8328 98.4626 35.7638 98.5659C35.7048 98.6652 35.6407 98.7293 35.5718 98.758L33.5338 99.6076C33.0513 100.395 32.682 101.072 32.4259 101.637C32.1698 102.192 32.0663 102.555 32.1155 102.727C32.1549 102.913 32.46 102.924 33.0311 102.761C33.671 102.494 34.2125 102.188 34.6556 101.844C35.0987 101.488 35.527 101.054 35.9406 100.54ZM43.6189 99.0511C43.4417 99.125 43.2989 99.1045 43.1907 98.9896C43.0922 98.86 43.0037 98.6409 42.925 98.3324C42.8463 98.0133 42.7234 97.4566 42.5562 96.6623C42.3887 97.4468 42.0735 98.1488 41.6107 98.7683C41.1478 99.3772 40.5817 99.8212 39.9122 100.1C39.3018 100.355 38.7849 100.341 38.3617 100.059C37.9483 99.7618 37.6383 99.2778 37.4317 98.6066C37.2251 97.9248 37.1219 97.1412 37.1221 96.2559C37.1222 95.8506 37.1567 95.4895 37.2257 95.1728C37.3045 94.8413 37.3981 94.5783 37.5064 94.3838C37.6246 94.1852 37.7378 94.0687 37.8461 94.0342C37.9643 93.985 38.0233 94.0457 38.0233 94.2164C38.0233 94.355 37.9888 94.5881 37.9198 94.9155C37.8508 95.2748 37.8162 95.6679 37.8162 96.0945C37.816 96.7345 37.8996 97.3237 38.0668 97.8619C38.2439 98.396 38.4998 98.7906 38.8344 99.0458C39.1789 99.2861 39.5826 99.3098 40.0453 99.1169C40.4293 98.9569 40.7788 98.6885 41.0939 98.3118C41.409 97.9352 41.6552 97.5232 41.8325 97.076C42.0197 96.6247 42.1133 96.2177 42.1134 95.855L42.1139 93.311C42.2223 93.0419 42.37 92.8683 42.557 92.7903C42.7244 92.7206 42.8376 92.828 42.8966 93.1127C42.9556 93.3974 42.985 93.8225 42.9849 94.3878C42.9848 94.8678 42.9798 95.2379 42.9699 95.498C43.0289 95.8253 43.1174 96.1457 43.2355 96.4591C43.3634 96.7685 43.5209 97.1135 43.7078 97.4941C43.9341 97.9651 44.0473 98.2645 44.0473 98.3925C44.0472 98.7125 43.9044 98.9321 43.6189 99.0511ZM54.8181 94.4785C54.6704 94.54 54.5818 94.5343 54.5523 94.4613C54.5228 94.3776 54.508 94.2397 54.5081 94.0477C54.5179 93.969 54.5229 93.8816 54.5229 93.7856C54.5229 93.6789 54.5279 93.5969 54.5377 93.5394C54.5969 93.0028 54.6265 92.5052 54.6266 92.0465C54.6269 91.0332 54.4695 90.3095 54.1546 89.8755C53.8396 89.4308 53.3425 89.3501 52.6632 89.6333C52.2891 89.7892 51.9149 90.0465 51.5407 90.4052C51.1764 90.7597 50.8761 91.1355 50.6397 91.5327C50.4132 91.9258 50.2999 92.245 50.2999 92.4903C50.349 92.7791 50.4376 93.1209 50.5654 93.5155C50.5753 93.5647 50.6146 93.7136 50.6835 93.9622C50.7622 94.2067 50.8015 94.441 50.8015 94.665L50.8162 94.9628C50.8161 95.1335 50.7374 95.2517 50.5798 95.3173C50.3829 95.3994 50.2205 95.3285 50.0926 95.1045C49.9745 94.8764 49.8417 94.4998 49.6941 93.9747C49.5465 93.4603 49.4039 93.0451 49.2661 92.7293C49.1284 92.4134 48.9414 92.1714 48.7052 92.0032C48.4689 91.835 48.1687 91.8269 47.8044 91.9787C47.3023 92.1881 46.9084 92.5389 46.6228 93.0313C46.3471 93.5195 46.2091 94.0356 46.209 94.5796C46.2089 94.9423 46.2384 95.41 46.2973 95.9827C46.3464 96.4102 46.371 96.7839 46.3709 97.1039C46.3709 97.2959 46.3511 97.4481 46.3117 97.5605C46.2723 97.673 46.1788 97.7599 46.0311 97.8215C45.8342 97.9036 45.6964 97.8917 45.6176 97.7859C45.5389 97.6694 45.4996 97.4618 45.4996 97.1631C45.4998 96.5765 45.4704 95.8795 45.4115 95.0721C45.4017 94.9695 45.382 94.7057 45.3526 94.2807C45.3232 93.845 45.3183 93.3991 45.3381 92.9429L45.353 92.4087C45.4121 92.3201 45.481 92.2594 45.5598 92.2265C45.6681 92.1814 45.7567 92.2191 45.8256 92.3397C45.9043 92.4455 45.9436 92.6425 45.9436 92.9305C46.0913 92.5916 46.308 92.2506 46.5935 91.9076C46.8791 91.5645 47.1794 91.3274 47.4945 91.196C48.036 90.9703 48.4839 90.9062 48.8383 91.0038C49.2025 91.0866 49.5322 91.3331 49.8275 91.7433C50.1033 91.0844 50.5169 90.448 51.0683 89.8342C51.6296 89.2162 52.2056 88.7841 52.7963 88.5379C53.4067 88.2834 53.9137 88.3227 54.3173 88.6558C54.7307 88.9847 55.0308 89.4622 55.2177 90.0882C55.4145 90.7101 55.5128 91.3198 55.5127 91.9171C55.5126 92.4504 55.4682 92.9809 55.3794 93.5085C55.3006 94.032 55.1135 94.3553 54.8181 94.4785ZM62.0156 91.43C61.9664 91.4612 61.9123 91.2811 61.8533 90.8897C61.8042 90.4943 61.7354 89.8083 61.647 88.8319C61.5095 87.2254 61.3523 85.7657 61.1754 84.4529C61.0083 83.136 60.7969 82.0243 60.5412 81.1177C60.5215 81.0405 60.551 80.9536 60.6298 80.8567C60.7086 80.7599 60.8169 80.6827 60.9547 80.6253C61.0237 80.5966 61.0778 80.5793 61.1172 80.5736C61.3632 81.1963 61.5353 81.7645 61.6337 82.2781C61.7418 82.7876 61.8401 83.4292 61.9286 84.203L62.0023 84.7962C62.5931 84.1659 63.1346 83.7482 63.6269 83.543C64.5228 83.1695 65.1578 83.3474 65.5317 84.0768C65.9155 84.7914 66.1072 85.9594 66.1069 87.5807C66.1067 88.1994 66.0722 88.7364 66.0031 89.1918C65.9341 89.6365 65.8504 89.8794 65.752 89.9204C65.624 89.9738 65.4812 89.932 65.3237 89.795L65.3239 89.267L65.339 87.5168C65.3391 87.1862 65.3293 86.7796 65.3097 86.2971C65.2804 85.4775 65.123 84.9138 64.8376 84.6061C64.562 84.2944 64.0845 84.2801 63.4052 84.5633C62.9523 84.7521 62.5289 85.1099 62.135 85.6368C62.1349 86.0421 62.1496 86.4519 62.179 86.8663C62.2183 87.2765 62.2625 87.6741 62.3117 88.0589C62.3805 88.5955 62.4296 89.0763 62.459 89.5013C62.4983 89.9116 62.5179 90.378 62.5178 90.9007C62.4587 91.0533 62.3898 91.1674 62.311 91.2429C62.2421 91.3143 62.1436 91.3767 62.0156 91.43ZM68.3897 88.8209C68.1632 88.9153 67.9812 88.6338 67.8435 87.9766C67.7058 87.3088 67.6173 86.7217 67.5781 86.2155C67.5388 85.7092 67.4848 84.9051 67.4162 83.8032C67.4064 83.6259 67.4015 83.3933 67.4015 83.1053C67.4016 82.7427 67.4263 82.4817 67.4755 82.3226C67.5346 82.1593 67.6282 82.0509 67.7562 81.9976C67.8645 81.9524 67.9482 81.9442 68.0072 81.9729C68.0761 81.9869 68.1352 82.0369 68.1844 82.123L68.1695 82.7692C68.1693 83.4519 68.1987 84.0849 68.2577 84.6683C68.3265 85.2475 68.4297 86.0204 68.5673 86.987C68.6459 87.4021 68.7 87.7476 68.7295 88.0233C68.7492 88.1644 68.7245 88.324 68.6556 88.502C68.5866 88.6694 68.498 88.7757 68.3897 88.8209ZM68.0224 80.1748C67.8058 80.2651 67.6434 80.2421 67.5351 80.1059C67.4367 79.9656 67.3875 79.7622 67.3876 79.4955C67.3876 79.3782 67.3925 79.2908 67.4024 79.2333C67.3926 79.0668 67.4812 78.9445 67.6683 78.8665C67.8061 78.8091 67.9439 78.7889 68.0817 78.8061C68.2294 78.8086 68.2737 78.8381 68.2146 78.8947C68.313 79.131 68.3622 79.3292 68.3622 79.4892C68.3621 79.6278 68.3326 79.7521 68.2735 79.8621C68.2144 79.9614 68.1307 80.0656 68.0224 80.1748ZM71.4568 87.5902C71.319 87.6904 71.2402 87.7445 71.2205 87.7527C71.1418 87.7856 71.0581 87.7778 70.9695 87.7294C70.6447 87.3422 70.4086 86.5287 70.2612 85.2889C70.1237 84.045 70.055 82.9538 70.0552 82.0151C70.0552 81.8658 70.1537 81.7501 70.3506 81.668C70.646 81.5448 70.7936 81.6593 70.7935 82.0113C70.7935 82.1073 70.7886 82.1893 70.7787 82.2574C70.8674 81.9965 71.0348 81.6974 71.281 81.3601C71.5272 81.0228 71.8127 80.7065 72.1377 80.4111C72.4626 80.1156 72.7924 79.8981 73.1272 79.7586C74.1806 79.3194 74.9485 79.5059 75.4307 80.3182C75.9129 81.1197 76.1538 82.2672 76.1535 83.7605C76.1534 84.2725 76.1041 84.7037 76.0056 85.0541C75.907 85.3938 75.7741 85.5985 75.6067 85.6683C75.4295 85.7422 75.3409 85.7204 75.3409 85.6031C75.41 85.009 75.4446 84.44 75.4447 83.896C75.445 82.52 75.2237 81.5724 74.7808 81.0531C74.3379 80.5231 73.7522 80.4099 73.0236 80.7137C72.6692 80.8614 72.3246 81.1011 71.9898 81.4326C71.6648 81.7601 71.3989 82.1375 71.1921 82.5651C70.9951 82.9885 70.8966 83.4189 70.8965 83.8562C70.8964 84.3469 70.9209 84.7633 70.9701 85.1054C71.0192 85.4476 71.0979 85.8521 71.2061 86.3189C71.3241 86.771 71.4077 87.1948 71.4568 87.5902ZM82.6392 81.0728C82.836 81.1507 82.9345 81.2804 82.9344 81.4617C82.9343 81.7497 82.7079 82.0841 82.2549 82.4649C81.802 82.8457 81.29 83.2031 80.7189 83.5372C80.1479 83.8605 79.695 84.092 79.3602 84.2316C78.9861 84.3875 78.6268 84.4733 78.2822 84.489C77.9475 84.4899 77.7802 84.325 77.7802 83.9943C77.7803 83.6743 77.9428 83.1906 78.2679 82.5431C78.6027 81.8916 79.0016 81.2027 79.4644 80.4765L77.5593 81.2706C77.4609 81.3117 77.4117 81.2362 77.4117 81.0442C77.4117 80.8949 77.4265 80.7874 77.4561 80.7217C77.4856 80.6454 77.525 80.5917 77.5742 80.5605C77.6235 80.5293 77.717 80.485 77.8548 80.4275L80.1291 79.4794C80.4935 78.8262 80.7693 78.2846 80.9564 77.8547C81.1534 77.4099 81.252 77.0329 81.252 76.7235C81.2521 76.4142 81.1537 76.1779 80.9568 76.0147C80.6516 76.0779 80.3563 76.169 80.0708 76.288C79.5293 76.5138 79.0714 76.806 78.6973 77.1646C78.3231 77.5126 78.1163 77.8547 78.0768 78.1912C77.8504 78.2856 77.6978 78.3065 77.619 78.254C77.5501 78.1974 77.5157 78.0678 77.5158 77.8651C77.5158 77.6518 77.6143 77.4081 77.8113 77.134C78.0181 76.8451 78.3036 76.5661 78.6679 76.2969C79.0322 76.017 79.4408 75.7827 79.8937 75.5939C80.2678 75.438 80.6616 75.3218 81.0751 75.2454C81.3311 75.192 81.5477 75.2777 81.7248 75.5025C81.902 75.7273 81.9905 76.021 81.9904 76.3837C81.9904 76.7037 81.8968 77.0787 81.7096 77.5087C81.5323 77.9346 81.2664 78.4827 80.9119 79.1531L81.6355 78.8515C82.0096 78.6955 82.2558 78.6142 82.3739 78.6076C82.5019 78.597 82.5658 78.6556 82.5658 78.7836C82.5658 78.8903 82.5313 78.9953 82.4624 79.0987C82.4033 79.198 82.3393 79.262 82.2704 79.2907L80.2324 80.1403C79.7498 80.9281 79.3805 81.6047 79.1244 82.1701C78.8683 82.7248 78.7649 83.0879 78.8141 83.2593C78.8534 83.4456 79.1586 83.457 79.7296 83.2936C80.3696 83.0269 80.9111 82.7211 81.3542 82.3764C81.7972 82.0211 82.2256 81.5865 82.6392 81.0728ZM90.3174 79.5838C90.1402 79.6577 89.9975 79.6372 89.8892 79.5224C89.7908 79.3927 89.7022 79.1737 89.6235 78.8652C89.5449 78.546 89.4219 77.9893 89.2547 77.1951C89.0872 77.9795 88.772 78.6815 88.3092 79.3011C87.8464 79.91 87.2802 80.354 86.6107 80.6331C86.0003 80.8876 85.4835 80.8737 85.0602 80.5915C84.6468 80.2946 84.3368 79.8105 84.1302 79.1394C83.9236 78.4576 83.8204 77.674 83.8206 76.7887C83.8207 76.3833 83.8552 76.0223 83.9242 75.7056C84.0031 75.3741 84.0966 75.1111 84.205 74.9166C84.3231 74.718 84.4364 74.6015 84.5447 74.567C84.6628 74.5177 84.7219 74.5785 84.7218 74.7491C84.7218 74.8878 84.6873 75.1208 84.6183 75.4482C84.5493 75.8076 84.5148 76.2006 84.5147 76.6273C84.5146 77.2673 84.5981 77.8564 84.7654 78.3946C84.9424 78.9288 85.1983 79.3234 85.533 79.5785C85.8775 79.8189 86.2811 79.8426 86.7438 79.6497C87.1278 79.4896 87.4774 79.2213 87.7925 78.8446C88.1076 78.4679 88.3538 78.056 88.5311 77.6088C88.7182 77.1574 88.8118 76.7505 88.8119 76.3878L88.8125 73.8438C88.9208 73.5746 89.0685 73.4011 89.2556 73.3231C89.4229 73.2533 89.5361 73.3608 89.5951 73.6455C89.6541 73.9302 89.6836 74.3552 89.6835 74.9206C89.6834 75.4006 89.6784 75.7706 89.6685 76.0307C89.7275 76.3581 89.816 76.6785 89.934 76.9919C90.062 77.3012 90.2194 77.6462 90.4064 78.0269C90.6327 78.4978 90.7458 78.7973 90.7458 78.9253C90.7457 79.2453 90.6029 79.4648 90.3174 79.5838ZM95.5675 66.2122C96.0106 66.0276 96.4339 65.9737 96.8375 66.0508C97.2411 66.1172 97.5659 66.2857 97.812 66.5565C98.0679 66.8231 98.1958 67.1431 98.1957 67.5164L97.8708 67.6518C97.7231 67.7134 97.5902 67.7208 97.4721 67.6741C97.3638 67.6232 97.2211 67.5281 97.0439 67.3886C96.788 67.1966 96.5567 67.0691 96.35 67.006C96.1531 66.9387 95.8971 66.9708 95.5821 67.1021C95.0406 67.3278 94.5876 67.7886 94.2232 68.4845C93.8588 69.1697 93.6421 69.8893 93.573 70.6434C93.5434 70.9863 93.5286 71.3232 93.5285 71.6538C93.5284 72.1978 93.5627 72.6848 93.6316 73.1147C93.7595 73.0827 94.0598 72.9842 94.5324 72.8192C95.005 72.6542 95.3939 72.5187 95.6991 72.4128C95.8074 72.3677 96.019 72.2901 96.3341 72.1801C96.4325 72.1391 96.5015 72.137 96.5408 72.1739C96.59 72.1961 96.6146 72.2658 96.6146 72.3831C96.6146 72.6711 96.3142 72.9403 95.7137 73.1907C95.1919 73.4082 94.5372 73.5798 93.7496 73.7055C93.8578 74.1403 93.9955 74.5255 94.1628 74.8611C94.3301 75.186 94.5466 75.5704 94.8123 76.0142C94.9993 76.3309 95.137 76.5828 95.2256 76.7698C95.3141 76.9462 95.3584 77.1091 95.3584 77.2584C95.3584 77.3758 95.3239 77.4755 95.2549 77.5575C95.186 77.6289 95.0876 77.6913 94.9596 77.7447C94.6937 77.8555 94.4427 77.6561 94.2066 77.1466C93.9803 76.6224 93.7196 75.8778 93.4244 74.9129L93.1588 74.0797C92.9422 74.1914 92.6714 74.3682 92.3465 74.6103C92.317 74.6333 92.2136 74.7084 92.0364 74.8356C91.869 74.9481 91.7164 75.033 91.5785 75.0905C91.421 75.1561 91.3423 75.0876 91.3423 74.885C91.3424 74.6183 91.4704 74.389 91.7264 74.1969C91.9824 73.9942 92.2236 73.8403 92.4501 73.7352C92.6765 73.6195 92.8193 73.544 92.8784 73.5087C92.8588 73.1116 92.849 72.753 92.8491 72.433C92.8494 71.057 93.0416 69.7877 93.4258 68.6249C93.8198 67.4474 94.5337 66.6432 95.5675 66.2122ZM105.576 73.223C105.399 73.2969 105.256 73.2764 105.148 73.1616C105.049 73.0319 104.961 72.8129 104.882 72.5044C104.803 72.1852 104.68 71.6285 104.513 70.8343C104.346 71.6187 104.031 72.3207 103.568 72.9403C103.105 73.5492 102.539 73.9932 101.869 74.2723C101.259 74.5267 100.742 74.5129 100.319 74.2307C99.9053 73.9337 99.5953 73.4497 99.3887 72.7786C99.1821 72.0967 99.0789 71.3132 99.0791 70.4278C99.0792 70.0225 99.1138 69.6615 99.1827 69.3447C99.2616 69.0132 99.3551 68.7502 99.4635 68.5558C99.5817 68.3572 99.6949 68.2407 99.8032 68.2062C99.9213 68.1569 99.9804 68.2176 99.9804 68.3883C99.9803 68.527 99.9458 68.76 99.8768 69.0874C99.8078 69.4468 99.7733 69.8398 99.7732 70.2665C99.7731 70.9065 99.8566 71.4956 100.024 72.0338C100.201 72.5679 100.457 72.9626 100.791 73.2177C101.136 73.458 101.54 73.4818 102.002 73.2889C102.386 73.1288 102.736 72.8604 103.051 72.4838C103.366 72.1071 103.612 71.6952 103.79 71.2479C103.977 70.7966 104.07 70.3896 104.07 70.027L104.071 67.483C104.179 67.2138 104.327 67.0403 104.514 66.9623C104.681 66.8925 104.795 67 104.854 67.2847C104.913 67.5694 104.942 67.9944 104.942 68.5597C104.942 69.0397 104.937 69.4098 104.927 69.6699C104.986 69.9973 105.074 70.3177 105.193 70.6311C105.32 70.9404 105.478 71.2854 105.665 71.6661C105.891 72.137 106.004 72.4365 106.004 72.5645C106.004 72.8845 105.861 73.104 105.576 73.223ZM100.808 66.5555C100.621 66.6335 100.458 66.6159 100.32 66.5027C100.183 66.3788 100.114 66.2422 100.114 66.0929C100.114 65.9969 100.193 65.8094 100.35 65.5304C100.518 65.2473 100.646 65.0873 100.734 65.0503C101.02 64.9313 101.236 64.9317 101.384 65.0514C101.532 65.1712 101.605 65.3378 101.605 65.5511C101.605 65.6898 101.517 65.876 101.339 66.1099C101.172 66.329 100.995 66.4776 100.808 66.5555ZM103.126 65.589C102.92 65.6752 102.752 65.6596 102.624 65.5423C102.496 65.4143 102.432 65.2757 102.432 65.1263C102.432 65.0303 102.511 64.8428 102.669 64.5638C102.836 64.2807 102.969 64.1186 103.068 64.0776C103.333 63.9668 103.54 63.9713 103.688 64.091C103.835 64.2108 103.909 64.3774 103.909 64.5907C103.909 64.7294 103.82 64.9156 103.643 65.1495C103.476 65.3686 103.304 65.5151 103.126 65.589ZM109.67 79.4036C108.843 79.7484 108.149 79.7817 107.588 79.5037C107.037 79.2322 106.707 78.5217 106.599 77.3722C106.589 77.1949 106.614 77.046 106.673 76.9254C106.742 76.8006 106.83 76.7157 106.939 76.6706C107.057 76.6213 107.16 76.6262 107.249 76.6853C107.337 76.755 107.377 76.8773 107.367 77.052C107.367 77.756 107.588 78.2183 108.031 78.439C108.484 78.6662 109.06 78.6341 109.759 78.3427C110.162 78.1744 110.517 77.8667 110.822 77.4194C111.137 76.9681 111.379 76.4195 111.546 75.7738C111.714 75.1387 111.797 74.4531 111.798 73.7171C111.798 72.4264 111.813 71.1669 111.843 69.9386L111.858 69.1165C111.474 69.7139 111.124 70.1796 110.809 70.5136C110.504 70.8435 110.134 71.0987 109.701 71.2793C108.943 71.5953 108.382 71.6106 108.018 71.3251C107.663 71.0249 107.486 70.4161 107.487 69.4988C107.487 68.9761 107.615 68.3787 107.871 67.7067C108.137 67.0199 108.496 66.3901 108.949 65.8173C109.412 65.2404 109.934 64.8309 110.515 64.5887C110.712 64.5066 110.894 64.452 111.061 64.4249C111.691 64.3116 112.115 64.7698 112.331 65.7995C112.547 66.8292 112.655 68.2347 112.655 70.016C112.655 70.5067 112.645 71.1615 112.625 71.9803L112.61 73.5065C112.61 74.1145 112.521 74.8128 112.344 75.6013C112.166 76.4005 111.856 77.1591 111.413 77.8772C110.97 78.5952 110.389 79.104 109.67 79.4036ZM109.48 70.3157C110.209 70.0119 110.76 69.5954 111.134 69.0661C111.508 68.5262 111.696 67.8882 111.696 67.1522C111.696 67.0562 111.686 66.895 111.666 66.6685C111.617 66.1984 111.499 65.8636 111.312 65.6643C111.135 65.4501 110.854 65.4231 110.47 65.5832C110.067 65.7515 109.697 66.06 109.363 66.5089C109.028 66.9578 108.767 67.4505 108.58 67.9872C108.393 68.5132 108.299 68.9735 108.299 69.3682C108.299 69.7628 108.407 70.059 108.624 70.2567C108.84 70.4438 109.126 70.4634 109.48 70.3157ZM117.324 68.4054C116.694 68.6681 116.113 68.7769 115.582 68.7319C115.05 68.6868 114.627 68.4846 114.312 68.1253C113.997 67.766 113.84 67.2663 113.84 66.6263C113.84 65.9116 113.963 65.1937 114.21 64.4724C114.456 63.7405 114.815 63.0893 115.288 62.519C115.77 61.9339 116.332 61.5079 116.972 61.2412C117.641 60.9621 118.148 60.9854 118.493 61.311C118.837 61.6261 118.999 62.1397 118.98 62.8519C118.979 63.4812 118.748 64.0577 118.285 64.5812C117.832 65.1007 117.251 65.5082 116.542 65.8037C116.434 65.8488 116.272 65.9059 116.055 65.9749C115.701 66.0799 115.45 66.1259 115.302 66.1128C115.154 66.0997 115.08 65.9812 115.08 65.7572C115.08 65.6825 115.1 65.621 115.14 65.5725C115.179 65.5135 115.258 65.4593 115.376 65.41C115.504 65.3567 115.73 65.2943 116.055 65.2229C116.37 65.1555 116.651 65.0705 116.897 64.9679C117.803 64.5903 118.256 63.9749 118.256 63.1215C118.256 62.6095 118.167 62.2412 117.99 62.0164C117.823 61.7875 117.523 61.7633 117.09 61.9439C116.617 62.1409 116.194 62.4561 115.819 62.8894C115.445 63.312 115.155 63.7851 114.948 64.3086C114.751 64.828 114.652 65.333 114.652 65.8237C114.652 66.6664 114.868 67.2694 115.302 67.6328C115.735 67.9856 116.404 67.9731 117.31 67.5956C117.418 67.5504 117.6 67.4638 117.856 67.3358C117.965 67.28 118.098 67.1925 118.255 67.0735C118.413 66.9545 118.526 66.87 118.595 66.8199C119.018 66.4835 119.328 66.2742 119.525 66.1921C119.673 66.1305 119.786 66.126 119.865 66.1785C119.619 66.6864 119.249 67.139 118.757 67.5362C118.275 67.9187 117.797 68.2084 117.324 68.4054ZM121.862 66.5779C121.724 66.678 121.645 66.7322 121.626 66.7404C121.547 66.7732 121.463 66.7654 121.375 66.7171C121.05 66.3298 120.814 65.5163 120.666 64.2766C120.529 63.0327 120.46 61.9414 120.46 61.0028C120.46 60.8534 120.559 60.7377 120.756 60.6556C121.051 60.5325 121.199 60.6469 121.199 60.9989C121.199 61.0949 121.194 61.177 121.184 61.2451C121.272 60.9841 121.44 60.685 121.686 60.3478C121.932 60.0105 122.218 59.6941 122.543 59.3987C122.868 59.1033 123.197 58.8858 123.532 58.7462C124.586 58.3071 125.353 58.4936 125.836 59.3058C126.318 60.1074 126.559 61.2548 126.559 62.7482C126.558 63.2602 126.509 63.6913 126.411 64.0417C126.312 64.3814 126.179 64.5862 126.012 64.6559C125.835 64.7298 125.746 64.7081 125.746 64.5908C125.815 63.9967 125.85 63.4277 125.85 62.8837C125.85 61.5077 125.629 60.56 125.186 60.0407C124.743 59.5107 124.157 59.3976 123.429 59.7013C123.074 59.8491 122.73 60.0887 122.395 60.4203C122.07 60.7477 121.804 61.1252 121.597 61.5527C121.4 61.9761 121.302 62.4065 121.302 62.8438C121.301 63.3345 121.326 63.7509 121.375 64.0931C121.424 64.4352 121.503 64.8397 121.611 65.3066C121.729 65.7586 121.813 66.1824 121.862 66.5779Z" fill="white"/>
<path d="M97.7948 87.6659C113.539 113.268 102.877 136.026 75.9214 143.79" stroke="white"/>
<path d="M66.7897 132.687C63.6794 137.753 57.8208 148.419 59.2693 150.553C61.08 153.221 85.8337 152.925 87.2693 152.693" stroke="white"/>
</svg>
