<svg width="100" height="86" viewBox="0 0 1049 86" fill="none" xmlns="http://www.w3.org/2000/svg">
    <rect opacity="0.12" x="1" y="1" width="1047" height="84" fill="#5CA8EE"/>
    <path d="M454.5 37.375V49.625" stroke="#6C6C8F" stroke-linecap="round" stroke-linejoin="round"/>
    <path d="M448.375 43.5H460.625" stroke="#6C6C8F" stroke-linecap="round" stroke-linejoin="round"/>
    <path d="M482.898 39.2V49H481.75L475.87 41.692V49H474.47V39.2H475.618L481.498 46.508V39.2H482.898ZM492.341 45.332C492.341 45.4347 492.332 45.57 492.313 45.738H486.293C486.377 46.3913 486.662 46.9187 487.147 47.32C487.642 47.712 488.253 47.908 488.981 47.908C489.868 47.908 490.582 47.6093 491.123 47.012L491.865 47.88C491.529 48.272 491.109 48.5707 490.605 48.776C490.111 48.9813 489.555 49.084 488.939 49.084C488.155 49.084 487.46 48.9253 486.853 48.608C486.247 48.2813 485.775 47.8287 485.439 47.25C485.113 46.6713 484.949 46.018 484.949 45.29C484.949 44.5713 485.108 43.9227 485.425 43.344C485.752 42.7653 486.195 42.3173 486.755 42C487.325 41.6733 487.964 41.51 488.673 41.51C489.383 41.51 490.013 41.6733 490.563 42C491.123 42.3173 491.557 42.7653 491.865 43.344C492.183 43.9227 492.341 44.5853 492.341 45.332ZM488.673 42.644C488.029 42.644 487.488 42.84 487.049 43.232C486.62 43.624 486.368 44.1373 486.293 44.772H491.053C490.979 44.1467 490.722 43.638 490.283 43.246C489.854 42.8447 489.317 42.644 488.673 42.644ZM501.124 41.58V49H499.85V47.88C499.579 48.2627 499.22 48.5613 498.772 48.776C498.333 48.9813 497.852 49.084 497.33 49.084C496.34 49.084 495.561 48.8133 494.992 48.272C494.422 47.7213 494.138 46.914 494.138 45.85V41.58H495.482V45.696C495.482 46.4147 495.654 46.9607 496 47.334C496.345 47.698 496.84 47.88 497.484 47.88C498.193 47.88 498.753 47.6653 499.164 47.236C499.574 46.8067 499.78 46.2 499.78 45.416V41.58H501.124ZM510.388 45.332C510.388 45.4347 510.379 45.57 510.36 45.738H504.34C504.424 46.3913 504.709 46.9187 505.194 47.32C505.689 47.712 506.3 47.908 507.028 47.908C507.915 47.908 508.629 47.6093 509.17 47.012L509.912 47.88C509.576 48.272 509.156 48.5707 508.652 48.776C508.158 48.9813 507.602 49.084 506.986 49.084C506.202 49.084 505.507 48.9253 504.9 48.608C504.294 48.2813 503.822 47.8287 503.486 47.25C503.16 46.6713 502.996 46.018 502.996 45.29C502.996 44.5713 503.155 43.9227 503.472 43.344C503.799 42.7653 504.242 42.3173 504.802 42C505.372 41.6733 506.011 41.51 506.72 41.51C507.43 41.51 508.06 41.6733 508.61 42C509.17 42.3173 509.604 42.7653 509.912 43.344C510.23 43.9227 510.388 44.5853 510.388 45.332ZM506.72 42.644C506.076 42.644 505.535 42.84 505.096 43.232C504.667 43.624 504.415 44.1373 504.34 44.772H509.1C509.026 44.1467 508.769 43.638 508.33 43.246C507.901 42.8447 507.364 42.644 506.72 42.644ZM514.382 49.084C513.776 49.084 513.192 49.0047 512.632 48.846C512.072 48.678 511.634 48.468 511.316 48.216L511.876 47.152C512.203 47.3853 512.6 47.572 513.066 47.712C513.533 47.852 514.004 47.922 514.48 47.922C515.656 47.922 516.244 47.586 516.244 46.914C516.244 46.69 516.165 46.5127 516.006 46.382C515.848 46.2513 515.647 46.158 515.404 46.102C515.171 46.0367 514.835 45.9667 514.396 45.892C513.799 45.7987 513.309 45.6913 512.926 45.57C512.553 45.4487 512.231 45.2433 511.96 44.954C511.69 44.6647 511.554 44.2587 511.554 43.736C511.554 43.064 511.834 42.5273 512.394 42.126C512.954 41.7153 513.706 41.51 514.648 41.51C515.143 41.51 515.638 41.5707 516.132 41.692C516.627 41.8133 517.033 41.9767 517.35 42.182L516.776 43.246C516.17 42.854 515.456 42.658 514.634 42.658C514.065 42.658 513.631 42.7513 513.332 42.938C513.034 43.1247 512.884 43.372 512.884 43.68C512.884 43.9227 512.968 44.114 513.136 44.254C513.304 44.394 513.51 44.4967 513.752 44.562C514.004 44.6273 514.354 44.702 514.802 44.786C515.4 44.8887 515.88 45.0007 516.244 45.122C516.618 45.234 516.935 45.43 517.196 45.71C517.458 45.99 517.588 46.382 517.588 46.886C517.588 47.558 517.299 48.0947 516.72 48.496C516.151 48.888 515.372 49.084 514.382 49.084ZM525.17 40.418H521.81V39.2H529.916V40.418H526.556V49H525.17V40.418ZM531.067 41.58H532.411V49H531.067V41.58ZM531.739 40.152C531.478 40.152 531.258 40.068 531.081 39.9C530.913 39.732 530.829 39.5267 530.829 39.284C530.829 39.0413 530.913 38.836 531.081 38.668C531.258 38.4907 531.478 38.402 531.739 38.402C532 38.402 532.215 38.486 532.383 38.654C532.56 38.8127 532.649 39.0133 532.649 39.256C532.649 39.508 532.56 39.7227 532.383 39.9C532.215 40.068 532 40.152 531.739 40.152ZM538.211 49.084C537.455 49.084 536.778 48.9207 536.181 48.594C535.593 48.2673 535.131 47.8193 534.795 47.25C534.459 46.6713 534.291 46.018 534.291 45.29C534.291 44.562 534.459 43.9133 534.795 43.344C535.131 42.7653 535.593 42.3173 536.181 42C536.778 41.6733 537.455 41.51 538.211 41.51C538.883 41.51 539.48 41.6453 540.003 41.916C540.535 42.1867 540.946 42.5787 541.235 43.092L540.213 43.75C539.98 43.3953 539.69 43.1293 539.345 42.952C539 42.7747 538.617 42.686 538.197 42.686C537.712 42.686 537.273 42.7933 536.881 43.008C536.498 43.2227 536.195 43.5307 535.971 43.932C535.756 44.324 535.649 44.7767 535.649 45.29C535.649 45.8127 535.756 46.2747 535.971 46.676C536.195 47.068 536.498 47.3713 536.881 47.586C537.273 47.8007 537.712 47.908 538.197 47.908C538.617 47.908 539 47.8193 539.345 47.642C539.69 47.4647 539.98 47.1987 540.213 46.844L541.235 47.488C540.946 48.0013 540.535 48.398 540.003 48.678C539.48 48.9487 538.883 49.084 538.211 49.084ZM545.763 45.542L544.223 46.97V49H542.879V38.612H544.223V45.276L548.269 41.58H549.893L546.771 44.646L550.201 49H548.549L545.763 45.542ZM557.898 45.332C557.898 45.4347 557.889 45.57 557.87 45.738H551.85C551.934 46.3913 552.219 46.9187 552.704 47.32C553.199 47.712 553.81 47.908 554.538 47.908C555.425 47.908 556.139 47.6093 556.68 47.012L557.422 47.88C557.086 48.272 556.666 48.5707 556.162 48.776C555.667 48.9813 555.112 49.084 554.496 49.084C553.712 49.084 553.017 48.9253 552.41 48.608C551.803 48.2813 551.332 47.8287 550.996 47.25C550.669 46.6713 550.506 46.018 550.506 45.29C550.506 44.5713 550.665 43.9227 550.982 43.344C551.309 42.7653 551.752 42.3173 552.312 42C552.881 41.6733 553.521 41.51 554.23 41.51C554.939 41.51 555.569 41.6733 556.12 42C556.68 42.3173 557.114 42.7653 557.422 43.344C557.739 43.9227 557.898 44.5853 557.898 45.332ZM554.23 42.644C553.586 42.644 553.045 42.84 552.606 43.232C552.177 43.624 551.925 44.1373 551.85 44.772H556.61C556.535 44.1467 556.279 43.638 555.84 43.246C555.411 42.8447 554.874 42.644 554.23 42.644ZM563.936 48.566C563.74 48.734 563.498 48.8647 563.208 48.958C562.919 49.042 562.62 49.084 562.312 49.084C561.566 49.084 560.987 48.8833 560.576 48.482C560.166 48.0807 559.96 47.5067 559.96 46.76V42.686H558.7V41.58H559.96V39.956H561.304V41.58H563.432V42.686H561.304V46.704C561.304 47.1053 561.402 47.4133 561.598 47.628C561.804 47.8427 562.093 47.95 562.466 47.95C562.877 47.95 563.227 47.8333 563.516 47.6L563.936 48.566ZM572.023 41.51C573.05 41.51 573.834 41.762 574.375 42.266C574.926 42.77 575.201 43.5213 575.201 44.52V49H573.927V48.02C573.703 48.3653 573.381 48.6313 572.961 48.818C572.55 48.9953 572.06 49.084 571.491 49.084C570.66 49.084 569.993 48.8833 569.489 48.482C568.994 48.0807 568.747 47.5533 568.747 46.9C568.747 46.2467 568.985 45.724 569.461 45.332C569.937 44.9307 570.693 44.73 571.729 44.73H573.857V44.464C573.857 43.8853 573.689 43.442 573.353 43.134C573.017 42.826 572.522 42.672 571.869 42.672C571.43 42.672 571.001 42.7467 570.581 42.896C570.161 43.036 569.806 43.2273 569.517 43.47L568.957 42.462C569.34 42.154 569.797 41.9207 570.329 41.762C570.861 41.594 571.426 41.51 572.023 41.51ZM571.715 48.048C572.228 48.048 572.672 47.936 573.045 47.712C573.418 47.4787 573.689 47.152 573.857 46.732V45.696H571.785C570.646 45.696 570.077 46.0787 570.077 46.844C570.077 47.2173 570.222 47.5113 570.511 47.726C570.8 47.9407 571.202 48.048 571.715 48.048ZM581.65 41.51C582.593 41.51 583.339 41.7853 583.89 42.336C584.45 42.8773 584.73 43.6753 584.73 44.73V49H583.386V44.884C583.386 44.1653 583.213 43.624 582.868 43.26C582.523 42.896 582.028 42.714 581.384 42.714C580.656 42.714 580.082 42.9287 579.662 43.358C579.242 43.778 579.032 44.3847 579.032 45.178V49H577.688V41.58H578.976V42.7C579.247 42.3173 579.611 42.0233 580.068 41.818C580.535 41.6127 581.062 41.51 581.65 41.51ZM587.217 38.612H588.561V49H587.217V38.612ZM597.834 45.332C597.834 45.4347 597.824 45.57 597.806 45.738H591.786C591.87 46.3913 592.154 46.9187 592.64 47.32C593.134 47.712 593.746 47.908 594.474 47.908C595.36 47.908 596.074 47.6093 596.616 47.012L597.358 47.88C597.022 48.272 596.602 48.5707 596.098 48.776C595.603 48.9813 595.048 49.084 594.432 49.084C593.648 49.084 592.952 48.9253 592.346 48.608C591.739 48.2813 591.268 47.8287 590.932 47.25C590.605 46.6713 590.442 46.018 590.442 45.29C590.442 44.5713 590.6 43.9227 590.918 43.344C591.244 42.7653 591.688 42.3173 592.248 42C592.817 41.6733 593.456 41.51 594.166 41.51C594.875 41.51 595.505 41.6733 596.056 42C596.616 42.3173 597.05 42.7653 597.358 43.344C597.675 43.9227 597.834 44.5853 597.834 45.332ZM594.166 42.644C593.522 42.644 592.98 42.84 592.542 43.232C592.112 43.624 591.86 44.1373 591.786 44.772H596.546C596.471 44.1467 596.214 43.638 595.776 43.246C595.346 42.8447 594.81 42.644 594.166 42.644ZM606.798 41.58V47.992C606.798 49.2893 606.476 50.246 605.832 50.862C605.188 51.4873 604.226 51.8 602.948 51.8C602.248 51.8 601.58 51.702 600.946 51.506C600.311 51.3193 599.798 51.0487 599.406 50.694L600.05 49.658C600.395 49.9567 600.82 50.19 601.324 50.358C601.837 50.5353 602.364 50.624 602.906 50.624C603.774 50.624 604.413 50.4187 604.824 50.008C605.244 49.5973 605.454 48.972 605.454 48.132V47.544C605.136 47.9267 604.744 48.216 604.278 48.412C603.82 48.5987 603.321 48.692 602.78 48.692C602.07 48.692 601.426 48.5427 600.848 48.244C600.278 47.936 599.83 47.5113 599.504 46.97C599.177 46.4193 599.014 45.794 599.014 45.094C599.014 44.394 599.177 43.7733 599.504 43.232C599.83 42.6813 600.278 42.2567 600.848 41.958C601.426 41.6593 602.07 41.51 602.78 41.51C603.34 41.51 603.858 41.6127 604.334 41.818C604.819 42.0233 605.216 42.3267 605.524 42.728V41.58H606.798ZM602.934 47.516C603.419 47.516 603.853 47.4133 604.236 47.208C604.628 47.0027 604.931 46.718 605.146 46.354C605.37 45.9807 605.482 45.5607 605.482 45.094C605.482 44.3753 605.244 43.7967 604.768 43.358C604.292 42.91 603.68 42.686 602.934 42.686C602.178 42.686 601.562 42.91 601.086 43.358C600.61 43.7967 600.372 44.3753 600.372 45.094C600.372 45.5607 600.479 45.9807 600.694 46.354C600.918 46.718 601.221 47.0027 601.604 47.208C601.996 47.4133 602.439 47.516 602.934 47.516ZM616.072 45.332C616.072 45.4347 616.062 45.57 616.044 45.738H610.024C610.108 46.3913 610.392 46.9187 610.878 47.32C611.372 47.712 611.984 47.908 612.712 47.908C613.598 47.908 614.312 47.6093 614.854 47.012L615.596 47.88C615.26 48.272 614.84 48.5707 614.336 48.776C613.841 48.9813 613.286 49.084 612.67 49.084C611.886 49.084 611.19 48.9253 610.584 48.608C609.977 48.2813 609.506 47.8287 609.17 47.25C608.843 46.6713 608.68 46.018 608.68 45.29C608.68 44.5713 608.838 43.9227 609.156 43.344C609.482 42.7653 609.926 42.3173 610.486 42C611.055 41.6733 611.694 41.51 612.404 41.51C613.113 41.51 613.743 41.6733 614.294 42C614.854 42.3173 615.288 42.7653 615.596 43.344C615.913 43.9227 616.072 44.5853 616.072 45.332ZM612.404 42.644C611.76 42.644 611.218 42.84 610.78 43.232C610.35 43.624 610.098 44.1373 610.024 44.772H614.784C614.709 44.1467 614.452 43.638 614.014 43.246C613.584 42.8447 613.048 42.644 612.404 42.644ZM621.9 41.51C622.843 41.51 623.589 41.7853 624.14 42.336C624.7 42.8773 624.98 43.6753 624.98 44.73V49H623.636V44.884C623.636 44.1653 623.463 43.624 623.118 43.26C622.773 42.896 622.278 42.714 621.634 42.714C620.906 42.714 620.332 42.9287 619.912 43.358C619.492 43.778 619.282 44.3847 619.282 45.178V49H617.938V41.58H619.226V42.7C619.497 42.3173 619.861 42.0233 620.318 41.818C620.785 41.6127 621.312 41.51 621.9 41.51Z" fill="#6C6C8F"/>
    <rect x="1" y="1" width="1047" height="84" rx="12" stroke="#1784D5" stroke-linecap="round" stroke-linejoin="round" stroke-dasharray="10 10"/>
</svg>