<svg width="307" height="286" viewBox="0 0 307 286" fill="none" xmlns="http://www.w3.org/2000/svg">
    <path d="M22.7895 151.128L18.5736 150.209L17.6191 145.976C17.5794 145.816 17.46 145.736 17.3009 145.736C17.1418 145.736 17.0225 145.856 16.9827 145.976L16.0282 150.249L11.8123 151.247C11.6532 151.287 11.5738 151.407 11.5738 151.567C11.5738 151.727 11.6931 151.846 11.8521 151.886L16.068 152.805L17.0225 157.038C17.0623 157.198 17.1817 157.278 17.3407 157.278C17.4998 157.278 17.6191 157.158 17.6588 157.038L18.6134 152.765L22.8292 151.767C22.9883 151.727 23.0679 151.607 23.0679 151.447C23.0679 151.287 22.9486 151.128 22.7895 151.128Z" fill="#565677"/>
    <path d="M129.578 3.95398L126.516 3.27494L125.8 0.199693C125.76 0.0798771 125.681 0 125.561 0C125.442 0 125.362 0.0798771 125.323 0.199693L124.607 3.31492L121.544 4.03383C121.425 4.07377 121.345 4.15359 121.345 4.27341C121.345 4.39322 121.425 4.47314 121.544 4.51308L124.607 5.19201L125.323 8.26726C125.362 8.38708 125.442 8.46696 125.561 8.46696C125.681 8.46696 125.76 8.38708 125.8 8.26726L126.516 5.15213L129.578 4.43322C129.697 4.39328 129.777 4.31336 129.777 4.19355C129.777 4.07373 129.697 3.95398 129.578 3.95398Z" fill="#565677"/>
    <path d="M212.264 91.6192L216.48 90.7005L217.435 86.4671C217.475 86.3074 217.594 86.2275 217.753 86.2275C217.912 86.2275 218.031 86.3473 218.071 86.4671L219.026 90.7405L223.241 91.7389C223.401 91.7789 223.48 91.8988 223.48 92.0585C223.48 92.2183 223.361 92.338 223.241 92.378L219.026 93.2965L218.071 97.53C218.031 97.6898 217.912 97.7697 217.753 97.7697C217.594 97.7697 217.475 97.6498 217.435 97.53L216.48 93.2567L212.264 92.2582C212.105 92.2183 212.026 92.0984 212.026 91.9386C211.986 91.7789 212.105 91.6192 212.264 91.6192Z" fill="#565677"/>
    <path d="M230.003 55.8341L232.19 55.3548L232.668 53.1582C232.668 53.0783 232.747 53.0384 232.827 53.0384C232.906 53.0384 232.986 53.0783 232.986 53.1582L233.503 55.3548L235.69 55.8741C235.77 55.8741 235.81 55.954 235.81 56.0338C235.81 56.1137 235.77 56.1935 235.69 56.1935L233.503 56.6729L233.026 58.8695C233.026 58.9494 232.946 58.9892 232.867 58.9892C232.787 58.9892 232.708 58.9494 232.708 58.8695L232.19 56.6729L230.003 56.1536C229.923 56.1536 229.884 56.0737 229.884 55.9939C229.884 55.914 229.923 55.8741 230.003 55.8341Z" fill="#565677"/>
    <path d="M90.0045 271.422V140.504C90.0045 133.115 95.9703 127.125 103.328 127.125H143.896C149.146 127.125 153.879 130.2 156.027 134.993L160.362 144.538C162.51 149.33 167.282 152.406 172.492 152.406H236.327C243.685 152.406 249.651 158.396 249.651 165.785V271.422C249.651 278.811 243.685 284.802 236.327 284.802H103.289C96.0103 284.802 90.0045 278.811 90.0045 271.422Z" fill="#D9D9EF"/>
    <path d="M236.406 286H103.368C95.3337 286 88.8508 279.45 88.8508 271.422V140.504C88.8508 132.436 95.3735 125.926 103.368 125.926H143.935C149.623 125.926 154.833 129.281 157.18 134.473L161.515 144.018C163.464 148.372 167.839 151.168 172.572 151.168H236.406C244.44 151.168 250.923 157.718 250.923 165.745V271.383C250.923 279.45 244.44 286 236.406 286ZM103.368 128.283C96.686 128.283 91.2372 133.754 91.2372 140.464V271.383C91.2372 278.092 96.686 283.564 103.368 283.564H236.406C243.088 283.564 248.537 278.092 248.537 271.383V165.745C248.537 159.036 243.088 153.564 236.406 153.564H172.572C166.884 153.564 161.674 150.209 159.327 145.017L154.992 135.472C153.043 131.118 148.668 128.323 143.935 128.323H103.368V128.283Z" fill="#565677"/>
    <path d="M229.526 284.802C229.526 284.802 213.896 284.043 210.078 264.114L196.396 186.353C195.282 179.963 189.714 175.291 183.271 175.291H62.2839C53.9317 175.291 47.6079 182.919 49.1591 191.186L64.7101 273.859C65.9032 280.169 71.3918 284.762 77.8349 284.762H229.526V284.802Z" fill="#EFEFF7"/>
    <path d="M229.526 286H77.7945C70.7946 286 64.789 281.008 63.5163 274.098L47.9653 191.426C47.1698 187.152 48.2834 182.759 51.0674 179.404C53.8515 176.049 57.9083 174.132 62.2435 174.132H183.231C190.31 174.132 196.316 179.204 197.549 186.194L211.231 263.954C214.81 282.685 229.407 283.644 229.566 283.644L229.526 286ZM62.2833 176.529C58.664 176.529 55.2436 178.126 52.9368 180.962C50.63 183.797 49.6755 187.432 50.3516 191.026L65.9026 273.699C66.9765 279.45 71.9878 283.644 77.8343 283.644H221.77C221.412 283.444 221.015 283.244 220.617 283.005C216.401 280.449 210.952 275.137 208.924 264.393L195.242 186.633C194.208 180.802 189.197 176.568 183.271 176.568H62.2833V176.529Z" fill="#565677"/>
    <path d="M140.715 53.5975L101.817 69.2934L131.925 81.1551C131.965 81.1551 159.01 73.4869 140.715 53.5975Z" fill="#565677"/>
    <path d="M1.19261 40.9769C1.19261 40.9769 1.19254 166.145 136.14 78.4794C136.14 78.4794 103.726 84.5899 89.6462 11.1029L1.19261 40.9769Z" fill="#FCFCFC"/>
    <path d="M56.0391 110.869C46.6131 110.869 38.261 108.872 30.9429 104.879C18.2555 97.9292 8.86926 84.6698 3.81818 66.4977C0.0398111 52.8387 0 41.4561 0 40.9768V40.0983L90.5616 9.54531L90.8001 10.9032C97.9989 48.4854 110.05 64.5806 118.919 71.4501C128.266 78.679 135.862 77.3609 135.942 77.3609L141.908 76.2427L136.817 79.5575C104.641 100.366 77.5957 110.869 56.0391 110.869ZM2.38634 41.8156C2.46588 44.7311 2.98288 54.6759 6.1249 65.8987C9.54531 78.1199 16.7839 94.4147 32.0962 102.762C54.7267 115.143 88.3741 107.355 132.044 79.6775C128.544 79.2781 123.294 77.8403 117.448 73.2873C111.601 68.7343 106.311 61.9845 101.777 53.1581C96.3285 42.5344 91.9138 28.9154 88.6922 12.6604L2.38634 41.8156Z" fill="#565677"/>
    <path d="M43.8686 99.9262L43.1924 97.6498C43.4708 97.5699 71.2318 89.1028 96.4077 77.8002L97.402 79.9969C72.0671 91.3394 44.147 99.8463 43.8686 99.9262Z" fill="#565677"/>
    <path d="M35.8349 89.5822L35.119 87.3056C35.3577 87.2257 59.0221 79.917 87.6184 67.8156L88.5332 70.0123C59.8972 82.1536 36.0736 89.5023 35.8349 89.5822Z" fill="#565677"/>
    <path d="M27.0855 78.08L26.3696 75.8034C26.6082 75.7235 49.159 68.7742 78.9087 57.0722L79.7838 59.3088C49.9546 71.0508 27.3241 78.04 27.0855 78.08Z" fill="#565677"/>
    <path d="M20.9607 65.4595L20.2846 63.1429C20.5232 63.063 43.5911 56.2337 54.4489 51.3212L55.4433 53.5179C44.4263 58.5102 21.1993 65.3796 20.9607 65.4595Z" fill="#565677"/>
    <path d="M258.337 183.324L248.979 189.238L267.705 219.025L277.063 213.112L258.337 183.324Z" fill="#565677"/>
    <path d="M257.362 192.162C276.79 179.886 282.607 154.133 270.353 134.642C258.1 115.151 232.417 109.302 212.988 121.578C193.56 133.854 187.744 159.606 199.997 179.097C212.251 198.589 237.934 204.438 257.362 192.162Z" fill="#EFEFF7"/>
    <path d="M235.214 199.813C232.032 199.813 228.851 199.453 225.669 198.734C214.533 196.218 205.067 189.468 198.942 179.763C192.817 170.058 190.908 158.556 193.413 147.373C195.959 136.191 202.641 126.685 212.305 120.535C232.231 107.914 258.68 113.945 271.248 133.954C277.333 143.659 279.282 155.161 276.776 166.344C274.271 177.527 267.549 187.032 257.884 193.183C251.004 197.536 243.169 199.813 235.214 199.813ZM235.055 116.341C227.697 116.341 220.26 118.338 213.618 122.572C204.51 128.363 198.146 137.349 195.76 147.893C193.374 158.436 195.243 169.3 200.97 178.485C206.697 187.671 215.686 194.022 226.186 196.418C236.686 198.814 247.504 196.937 256.651 191.186C265.759 185.395 272.123 176.409 274.509 165.865C276.896 155.321 275.026 144.458 269.299 135.272C261.583 123.051 248.458 116.341 235.055 116.341Z" fill="#565677"/>
    <path d="M252.087 183.784C266.905 174.422 271.341 154.781 261.995 139.915C252.65 125.049 233.062 120.588 218.244 129.951C203.427 139.314 198.991 158.955 208.336 173.82C217.682 188.686 237.27 193.147 252.087 183.784Z" fill="#FCFCFC"/>
    <path d="M235.175 189.868C224.237 189.868 213.539 184.396 207.295 174.452C202.601 166.983 201.09 158.157 203.039 149.53C204.988 140.903 210.158 133.595 217.556 128.882C224.993 124.169 233.783 122.652 242.374 124.609C250.964 126.566 258.243 131.758 262.936 139.186C272.601 154.602 267.987 175.011 252.635 184.716C247.226 188.231 241.141 189.868 235.175 189.868ZM235.056 126.246C229.368 126.246 223.8 127.844 218.868 130.959C211.988 135.312 207.175 142.102 205.385 150.089C203.596 158.077 204.988 166.264 209.323 173.174C218.272 187.472 237.164 191.745 251.402 182.759C265.641 173.773 269.896 154.802 260.947 140.504C256.612 133.595 249.851 128.762 241.896 126.965C239.59 126.486 237.323 126.246 235.056 126.246Z" fill="#565677"/>
    <path d="M265.003 223.457L287.554 259.401C290.458 264.034 296.583 265.432 301.236 262.516C305.85 259.601 307.242 253.45 304.338 248.778L281.787 212.833C278.884 208.2 272.759 206.802 268.106 209.718C263.452 212.673 262.06 218.784 265.003 223.457Z" fill="#EFEFF7"/>
    <path d="M295.946 265.232C292.247 265.232 288.628 263.395 286.52 260.04L263.969 224.095C262.379 221.579 261.861 218.584 262.538 215.669C263.174 212.753 264.924 210.277 267.429 208.719C269.935 207.122 272.918 206.602 275.821 207.281C278.725 207.92 281.191 209.678 282.742 212.194L305.293 248.138C308.554 253.331 307.003 260.24 301.833 263.515C300.043 264.673 297.975 265.232 295.946 265.232ZM273.356 209.398C271.725 209.398 270.134 209.877 268.742 210.756C266.753 211.994 265.401 213.951 264.884 216.228C264.367 218.504 264.765 220.86 265.998 222.817L288.549 258.762C291.094 262.836 296.503 264.074 300.56 261.518C304.617 258.962 305.85 253.53 303.304 249.456L280.753 213.512C279.52 211.515 277.572 210.157 275.305 209.638C274.668 209.478 273.992 209.398 273.356 209.398Z" fill="#565677"/>
</svg>