<svg width="42" height="42" viewBox="0 0 42 42" fill="none" xmlns="http://www.w3.org/2000/svg">
    <g filter="url(#filter0_d)">
    <rect x="4" y="2" width="34" height="34" rx="8" fill="#FCFCFC"/>
    <path d="M20.9167 20.4167C21.6991 20.4167 22.3333 19.7824 22.3333 19C22.3333 18.2176 21.6991 17.5834 20.9167 17.5834C20.1343 17.5834 19.5 18.2176 19.5 19C19.5 19.7824 20.1343 20.4167 20.9167 20.4167Z" fill="#14142A" stroke="#14142A" stroke-linecap="round" stroke-linejoin="round"/>
    <path d="M27.7507 20.4167C28.5331 20.4167 29.1673 19.7824 29.1673 19C29.1673 18.2176 28.5331 17.5834 27.7507 17.5834C26.9682 17.5834 26.334 18.2176 26.334 19C26.334 19.7824 26.9682 20.4167 27.7507 20.4167Z" fill="#14142A" stroke="#14142A" stroke-linecap="round" stroke-linejoin="round"/>
    <path d="M14.0827 20.4167C14.8651 20.4167 15.4993 19.7824 15.4993 19C15.4993 18.2176 14.8651 17.5834 14.0827 17.5834C13.3003 17.5834 12.666 18.2176 12.666 19C12.666 19.7824 13.3003 20.4167 14.0827 20.4167Z" fill="#14142A" stroke="#14142A" stroke-linecap="round" stroke-linejoin="round"/>
    <rect x="4.5" y="2.5" width="33" height="33" rx="7.5" stroke="#EFEFF7"/>
    </g>
    <defs>
    <filter id="filter0_d" x="0" y="0" width="42" height="42" filterUnits="userSpaceOnUse" color-interpolation-filters="sRGB">
    <feFlood flood-opacity="0" result="BackgroundImageFix"/>
    <feColorMatrix in="SourceAlpha" type="matrix" values="0 0 0 0 0 0 0 0 0 0 0 0 0 0 0 0 0 0 127 0" result="hardAlpha"/>
    <feOffset dy="2"/>
    <feGaussianBlur stdDeviation="2"/>
    <feColorMatrix type="matrix" values="0 0 0 0 0 0 0 0 0 0 0 0 0 0 0 0 0 0 0.05 0"/>
    <feBlend mode="normal" in2="BackgroundImageFix" result="effect1_dropShadow"/>
    <feBlend mode="normal" in="SourceGraphic" in2="effect1_dropShadow" result="shape"/>
    </filter>
    </defs>
</svg>