<svg width="20" height="17" viewBox="0 0 20 17" fill="none" xmlns="http://www.w3.org/2000/svg">
<path d="M8.57465 2.21635L1.51632 13.9997C1.37079 14.2517 1.29379 14.5374 1.29298 14.8284C1.29216 15.1195 1.36756 15.4056 1.51167 15.6585C1.65579 15.9113 1.86359 16.122 2.11441 16.2696C2.36523 16.4171 2.65032 16.4965 2.94132 16.4997H17.058C17.349 16.4965 17.6341 16.4171 17.8849 16.2696C18.1357 16.122 18.3435 15.9113 18.4876 15.6585C18.6317 15.4056 18.7071 15.1195 18.7063 14.8284C18.7055 14.5374 18.6285 14.2517 18.483 13.9997L11.4247 2.21635C11.2761 1.97144 11.0669 1.76895 10.8173 1.62842C10.5677 1.48789 10.2861 1.41406 9.99965 1.41406C9.71321 1.41406 9.43159 1.48789 9.18199 1.62842C8.93238 1.76895 8.72321 1.97144 8.57465 2.21635V2.21635Z" stroke="#E45F35" stroke-linecap="round" stroke-linejoin="round"/>
<path d="M10 6.5V9.83333" stroke="#E45F35" stroke-linecap="round" stroke-linejoin="round"/>
<path d="M10 13.168H10.0083" stroke="#E45F35" stroke-linecap="round" stroke-linejoin="round"/>
</svg>
