<svg width="107" height="51" viewBox="0 0 107 51" fill="none" xmlns="http://www.w3.org/2000/svg">
<path d="M46.8717 29.5867C44.3146 32.1437 41.233 33.421 37.6243 33.421C34.0156 33.421 30.9322 32.1429 28.376 29.5867C25.8189 27.0304 24.5416 23.9479 24.5416 20.3392C24.5416 16.7305 25.8189 13.648 28.376 11.0918C30.9322 8.53554 34.0147 7.25742 37.6243 7.25742C41.233 7.25742 44.3146 8.53554 46.8717 11.0918C49.428 13.6489 50.7061 16.7305 50.7061 20.3392C50.7061 23.9479 49.428 27.0304 46.8717 29.5867ZM32.4976 25.465C33.919 26.8872 35.6276 27.5975 37.6243 27.5975C39.6193 27.5975 41.3287 26.8872 42.7501 25.465C44.1714 24.0437 44.8825 22.3351 44.8825 20.3392C44.8825 18.3159 44.1714 16.594 42.7501 15.1718C41.3279 13.7504 39.6193 13.0394 37.6243 13.0394C35.6284 13.0394 33.919 13.7504 32.4976 15.1718C31.0755 16.594 30.3652 18.3159 30.3652 20.3392C30.3652 22.3351 31.0763 24.0445 32.4976 25.465Z" fill="#EFEFEF"/>
<path d="M74.9221 29.5867C72.3651 32.1437 69.2834 33.421 65.6747 33.421C62.066 33.421 58.9827 32.1429 56.4264 29.5867C53.8693 27.0304 52.592 23.9479 52.592 20.3392C52.592 16.7305 53.8693 13.648 56.4264 11.0918C58.9827 8.53554 62.0651 7.25742 65.6747 7.25742C69.2834 7.25742 72.3651 8.53554 74.9221 11.0918C77.4784 13.6489 78.7565 16.7305 78.7565 20.3392C78.7565 23.9479 77.4784 27.0304 74.9221 29.5867ZM60.548 25.465C61.9694 26.8872 63.678 27.5975 65.6747 27.5975C67.6697 27.5975 69.3792 26.8872 70.8005 25.465C72.2218 24.0437 72.9329 22.3351 72.9329 20.3392C72.9329 18.3159 72.2218 16.594 70.8005 15.1718C69.3783 13.7504 67.6697 13.0394 65.6747 13.0394C63.6788 13.0394 61.9694 13.7504 60.548 15.1718C59.1259 16.594 58.4156 18.3159 58.4156 20.3392C58.4156 22.3351 59.1267 24.0445 60.548 25.465Z" fill="#EFEFEF"/>
<path d="M105.957 0.851805C105.922 0.816834 105.887 0.781861 105.852 0.756881C105.334 0.283934 104.651 0 103.894 0C102.286 0 100.985 1.3006 100.985 2.90929V9.3507V9.4706C100.97 9.46061 100.95 9.45062 100.935 9.44062C98.7335 7.98598 96.3321 7.25907 93.7268 7.25907C90.1147 7.25907 87.0314 8.5347 84.476 11.0951C81.9206 13.6505 80.645 16.7297 80.645 20.3409C80.645 23.9479 81.9206 27.0312 84.476 29.5867C87.0314 32.1421 90.1156 33.4227 93.7268 33.4227C97.3338 33.4227 100.417 32.1421 102.973 29.5867C105.528 27.0312 106.809 23.9471 106.809 20.3409V2.90929C106.809 2.10745 106.485 1.37971 105.957 0.851805ZM98.8526 25.4659C97.4279 26.8855 95.7193 27.5983 93.7268 27.5983C91.7292 27.5983 90.0206 26.8855 88.601 25.4659C87.1763 24.0462 86.4685 22.3376 86.4685 20.34C86.4685 18.3425 87.1763 16.6339 88.601 15.2142C90.0206 13.7946 91.7292 13.0818 93.7268 13.0818C95.7193 13.0818 97.4279 13.7946 98.8526 15.2142C100.272 16.6339 100.985 18.3425 100.985 20.34C100.985 22.3376 100.272 24.0462 98.8526 25.4659Z" fill="#EFEFEF"/>
<path d="M19.5082 1.08329L16.9353 2.47799C16.2184 2.86684 15.7729 3.61622 15.7729 4.42973V16.574H6.18994V12.6655V11.3116C6.18994 10.0351 4.82189 9.22081 3.70031 9.82948L1.15989 11.2075C0.445469 11.5964 0 12.3433 0 13.1576V23.7098V28.52C0 29.2994 0.408834 30.0222 1.07912 30.4235L3.63786 31.9581C4.76111 32.6317 6.19077 31.824 6.19077 30.5126V22.0928H15.7738V33.5509C15.7738 34.3303 16.1826 35.053 16.8529 35.4544L19.4458 37.0098C20.569 37.6834 21.9987 36.8757 21.9987 35.5643V2.56625C21.9979 1.28729 20.6315 0.472959 19.5082 1.08329Z" fill="url(#paint0_linear_405_861)"/>
<path d="M22.4824 43.2666C23.3426 42.4122 24.3759 41.9784 25.5832 41.966C26.7839 41.9535 27.9571 42.4306 28.8056 43.2799C29.6807 44.1558 30.1187 45.2116 30.1187 46.4473C30.1187 46.449 30.1187 46.4515 30.1187 46.4531C30.1179 46.787 29.8331 47.051 29.4992 47.051H23.2202C23.3517 47.5947 23.6415 48.0435 24.0911 48.3999C24.5408 48.7562 25.0553 48.9336 25.6365 48.9336C26.1503 48.9336 26.6157 48.7895 27.0337 48.5006C27.1928 48.3907 27.3876 48.3441 27.5816 48.3441C28.5508 48.3441 28.9497 49.5989 28.152 50.1493C28.117 50.1734 28.082 50.1967 28.0471 50.22C27.2744 50.7238 26.4142 50.9586 25.4675 50.927C24.3076 50.8878 23.1985 50.3766 22.395 49.5398C21.5699 48.6796 21.1569 47.6496 21.1569 46.449C21.156 45.2583 21.6381 44.105 22.4824 43.2666ZM23.3051 45.5622H27.9555C27.7773 45.0851 27.4775 44.6962 27.0562 44.3965C26.6349 44.0967 26.1619 43.9468 25.6374 43.9468C25.1128 43.9468 24.6373 44.0967 24.2119 44.3965C23.7855 44.6962 23.4833 45.0851 23.3051 45.5622Z" fill="#EFEFEF"/>
<path d="M12.5739 43.2666C13.434 42.4122 14.4673 41.9784 15.6747 41.966C16.8754 41.9535 18.0486 42.4306 18.897 43.2799C19.7722 44.1558 20.2101 45.2116 20.2101 46.4473C20.2101 46.449 20.2101 46.4515 20.2101 46.4531C20.2093 46.787 19.9245 47.051 19.5906 47.051H13.3116C13.4432 47.5947 13.7329 48.0435 14.1826 48.3999C14.6322 48.7562 15.1468 48.9336 15.728 48.9336C16.2417 48.9336 16.7072 48.7895 17.1252 48.5006C17.2842 48.3907 17.479 48.3441 17.673 48.3441C18.6423 48.3441 19.0411 49.5989 18.2434 50.1493C18.2084 50.1734 18.1735 50.1967 18.1385 50.22C17.3658 50.7238 16.5057 50.9586 15.5589 50.927C14.3991 50.8878 13.29 50.3766 12.4864 49.5398C11.6613 48.6796 11.2483 47.6496 11.2483 46.449C11.2475 45.2583 11.7296 44.105 12.5739 43.2666ZM13.3965 45.5622H18.0469C17.8687 45.0851 17.569 44.6962 17.1476 44.3965C16.7263 44.0967 16.2534 43.9468 15.7288 43.9468C15.2042 43.9468 14.7288 44.0967 14.3033 44.3965C13.877 44.6962 13.5747 45.0851 13.3965 45.5622Z" fill="#EFEFEF"/>
<path d="M5.82855 46.5367C5.82855 45.3185 6.29651 44.1361 7.16496 43.2827C7.71785 42.7398 8.3415 42.3693 9.03677 42.1711C9.67458 41.9887 10.3099 42.4717 10.3099 43.1353C10.3099 43.5783 10.0185 43.9696 9.59381 44.0928C9.20829 44.2053 8.86107 44.4134 8.55382 44.7182C8.06672 45.2003 7.82359 45.784 7.82359 46.4676V49.9655C7.82359 50.5168 7.37729 50.9631 6.82607 50.9631C6.27485 50.9631 5.82855 50.5168 5.82855 49.9655V46.5367Z" fill="#EFEFEF"/>
<path d="M3.06761 50.0025V45.9624H3.40089C3.81145 45.9624 4.14389 45.6294 4.14389 45.2181C4.14389 44.8067 3.81145 44.4737 3.40089 44.4737H3.06761V42.5436C3.06761 42.2113 3.20142 41.9407 3.4707 41.7326C3.63692 41.6043 3.84801 41.5461 4.05828 41.5461C4.53035 41.5461 4.91266 41.163 4.91266 40.6901V40.407C4.91266 39.934 4.53035 39.551 4.05828 39.551H4.04914C3.22635 39.551 2.5249 39.8433 1.94562 40.4295C1.36551 41.0148 1.07628 41.7192 1.07628 42.5436L1.07628 44.4737H0.743012C0.332447 44.4737 0 44.8067 0 45.2181C0 45.6294 0.332447 45.9624 0.743012 45.9624H1.07628L1.07628 50.0025C1.07628 50.5537 1.52176 51 2.07195 51C2.62131 51 3.06761 50.5529 3.06761 50.0025Z" fill="#EFEFEF"/>
<defs>
<linearGradient id="paint0_linear_405_861" x1="7.20411" y1="26.3747" x2="29.3198" y2="13.7372" gradientUnits="userSpaceOnUse">
<stop offset="1.38522e-07" stop-color="#3050FF"/>
<stop offset="1" stop-color="#3D87FF"/>
</linearGradient>
</defs>
</svg>
